<svg width="146" height="27" viewBox="0 0 146 27" fill="none" xmlns="http://www.w3.org/2000/svg">
<path d="M0.171875 1.78125H10.3281L16.3633 13.2266L22.0762 1.78125H31.4219V4.90625H28.2969V22.875H31.4219V26H18.9219V22.875H22.0469V8.7832L15.7969 21.3125H13.8438L7.20312 8.73438V22.875H10.3281V26H0.171875V22.875H3.29688V4.90625H0.171875V1.78125ZM48.6094 1.78125H58.7656V4.90625H55.6406V17.7969C55.6406 18.6823 55.5462 19.5319 55.3574 20.3457C55.1686 21.1595 54.8594 21.9375 54.4297 22.6797C54.0065 23.4154 53.4824 24.0566 52.8574 24.6035C52.2389 25.1504 51.4642 25.5866 50.5332 25.9121C49.6022 26.2311 48.5703 26.3906 47.4375 26.3906C44.9766 26.3906 42.9648 26.0423 41.4023 25.3457C39.8398 24.6426 38.6973 23.6074 37.9746 22.2402C37.252 20.8665 36.8906 19.125 36.8906 17.0156V4.90625H33.7656V1.78125H46.2656V4.90625H43.1406V17.0156C43.1406 17.7253 43.1927 18.3796 43.2969 18.9785C43.4076 19.5775 43.5508 20.0885 43.7266 20.5117C43.9023 20.9284 44.1172 21.3027 44.3711 21.6348C44.625 21.9603 44.8887 22.224 45.1621 22.4258C45.4355 22.6276 45.7285 22.7936 46.041 22.9238C46.36 23.054 46.6628 23.1452 46.9492 23.1973C47.2357 23.2428 47.5286 23.2656 47.8281 23.2656C48.5898 23.2656 49.2702 23.1289 49.8691 22.8555C50.4746 22.5755 50.9661 22.1914 51.3438 21.7031C51.7279 21.2083 52.0176 20.6322 52.2129 19.9746C52.4147 19.3105 52.5156 18.5846 52.5156 17.7969V4.90625H48.6094V1.78125ZM60.2891 18.1875V15.0625H70.8359V18.1875H60.2891ZM82.9453 14.9941C83.3815 16.0033 83.7721 17.1979 84.1172 18.5781C84.4557 17.2305 84.8464 16.0358 85.2891 14.9941L89.5859 4.90625H85.2891V1.78125H95.8359V4.90625H93.4922L84.5078 26H80.2109L71.2266 4.90625H68.8828V1.78125H81.3828V4.90625H78.6484L82.9453 14.9941ZM99.791 8.37305C100.937 7.92383 102.151 7.69922 103.434 7.69922C104.716 7.69922 105.927 7.92383 107.066 8.37305C108.212 8.82227 109.208 9.45052 110.055 10.2578C110.901 11.0586 111.568 12.0482 112.057 13.2266C112.551 14.4049 112.799 15.6875 112.799 17.0742C112.799 18.4609 112.551 19.7435 112.057 20.9219C111.568 22.1003 110.901 23.0931 110.055 23.9004C109.208 24.7012 108.212 25.3262 107.066 25.7754C105.927 26.2246 104.716 26.4492 103.434 26.4492C102.151 26.4492 100.937 26.2246 99.791 25.7754C98.6517 25.3262 97.6589 24.7012 96.8125 23.9004C95.9727 23.0931 95.3053 22.1003 94.8105 20.9219C94.3223 19.7435 94.0781 18.4609 94.0781 17.0742C94.0781 15.6875 94.3223 14.4049 94.8105 13.2266C95.3053 12.0482 95.9727 11.0586 96.8125 10.2578C97.6589 9.45052 98.6517 8.82227 99.791 8.37305ZM103.434 10.8242C102.978 10.8242 102.571 10.8893 102.213 11.0195C101.855 11.1497 101.526 11.3646 101.227 11.6641C100.927 11.9635 100.68 12.3509 100.484 12.8262C100.296 13.3014 100.146 13.8939 100.035 14.6035C99.931 15.3132 99.8789 16.1367 99.8789 17.0742C99.8789 18.0117 99.931 18.8353 100.035 19.5449C100.146 20.2546 100.296 20.847 100.484 21.3223C100.68 21.7975 100.927 22.1849 101.227 22.4844C101.526 22.7839 101.855 22.9987 102.213 23.1289C102.571 23.2591 102.978 23.3242 103.434 23.3242C104.007 23.3242 104.505 23.2168 104.928 23.002C105.351 22.7806 105.719 22.429 106.031 21.9473C106.35 21.4655 106.588 20.8177 106.744 20.0039C106.907 19.1901 106.988 18.2135 106.988 17.0742C106.988 15.9349 106.907 14.9583 106.744 14.1445C106.588 13.3307 106.35 12.6829 106.031 12.2012C105.719 11.7194 105.351 11.3711 104.928 11.1562C104.505 10.9349 104.007 10.8242 103.434 10.8242ZM117.018 5.95117C116.412 5.33919 116.109 4.60026 116.109 3.73438C116.109 2.86849 116.412 2.13281 117.018 1.52734C117.63 0.915365 118.368 0.609375 119.234 0.609375C120.1 0.609375 120.836 0.915365 121.441 1.52734C122.053 2.13281 122.359 2.86849 122.359 3.73438C122.359 4.60026 122.053 5.33919 121.441 5.95117C120.836 6.55664 120.1 6.85938 119.234 6.85938C118.368 6.85938 117.63 6.55664 117.018 5.95117ZM114.547 8.03125H121.969V22.875H123.922V26H114.547V22.875H116.5V11.1562H114.547V8.03125ZM132.701 26.4492C131.178 26.4492 129.885 26.0586 128.824 25.2773C127.763 24.4961 126.972 23.4056 126.451 22.0059C125.937 20.6061 125.68 18.9395 125.68 17.0059C125.68 15.5931 125.862 14.3008 126.227 13.1289C126.598 11.957 127.112 10.9707 127.77 10.1699C128.434 9.36263 129.231 8.74089 130.162 8.30469C131.1 7.86198 132.125 7.64062 133.238 7.64062C133.798 7.64062 134.326 7.69271 134.82 7.79688C135.315 7.89453 135.735 8.01823 136.08 8.16797C136.432 8.31771 136.764 8.50326 137.076 8.72461C137.389 8.94596 137.639 9.1543 137.828 9.34961C138.023 9.54492 138.212 9.76302 138.395 10.0039V4.90625H136.441V1.78125H143.863V22.875H145.816V26H140.016L138.834 23.7344C138.58 24.0859 138.294 24.4082 137.975 24.7012C136.686 25.8665 134.928 26.4492 132.701 26.4492ZM138.395 13.3145C137.652 11.9473 136.643 11.2637 135.367 11.2637C134.078 11.2637 133.118 11.7682 132.486 12.7773C131.861 13.7865 131.549 15.2188 131.549 17.0742C131.549 17.9466 131.65 18.7539 131.852 19.4961C132.06 20.2318 132.333 20.8438 132.672 21.332C133.017 21.8203 133.411 22.2012 133.854 22.4746C134.296 22.7415 134.758 22.875 135.24 22.875C135.891 22.875 136.467 22.696 136.969 22.3379C137.477 21.9733 137.952 21.4362 138.395 20.7266V13.3145Z" fill="#0E0F1B"/>
</svg>
