<svg width="158" height="31" viewBox="0 0 158 31" fill="none" xmlns="http://www.w3.org/2000/svg">
<path d="M0.6 3.68V2.48H7.96L19.48 26.96L18.16 30H12.96L0.6 3.68ZM23.2 18.44H23.04L20.36 24.92L16.92 17.56L23.2 2.48H30.8V30H23.2V18.44ZM0.6 7.64L7.96 23.32V30H0.6V7.64ZM47.1906 30.32C44.3906 30.32 42.2306 30.0933 40.7106 29.64C39.1906 29.1867 38.0706 28.4533 37.3506 27.44C36.684 26.5067 36.2706 25.32 36.1106 23.88C35.9506 22.44 35.8706 20.2933 35.8706 17.44V2.48H43.8706V19.04C43.8706 20.0267 43.8973 20.9733 43.9506 21.88C44.004 22.6 44.124 23.12 44.3106 23.44C44.4973 23.76 44.8173 23.96 45.2706 24.04C45.6706 24.1467 46.3106 24.2 47.1906 24.2H48.1106C48.324 24.2 48.564 24.1733 48.8306 24.12V30.28C48.644 30.3067 48.3773 30.32 48.0306 30.32H47.1906ZM50.5106 2.48H58.5106V17.44C58.5106 20.0533 58.4573 22.0267 58.3506 23.36C58.244 24.6933 57.9506 25.8133 57.4706 26.72C56.9373 27.76 56.124 28.56 55.0306 29.12C53.9373 29.68 52.4306 30.04 50.5106 30.2V2.48ZM62.8878 15.64H74.2878V21.6H62.8878V15.64ZM84.1641 28.84C83.8174 27.7733 83.5107 26.7333 83.2441 25.72L81.9641 21.32C81.5374 19.88 81.2041 18.8 80.9641 18.08C80.7507 17.28 80.5774 16.68 80.4441 16.28L76.3641 2.48H84.5241L92.0041 30H84.5241L84.1641 28.84ZM90.4441 17.8L94.4841 2.48H102.484L98.4041 16.28L96.9241 21.32C96.4441 22.8667 96.0041 24.3333 95.6041 25.72C95.3374 26.7333 95.0307 27.7733 94.6841 28.84L94.3241 30H93.7641L90.4441 17.8ZM115.157 19.84C115.157 18.48 115.143 17.5733 115.117 17.12C115.09 16.48 115.01 16 114.877 15.68C114.743 15.3333 114.53 15.12 114.237 15.04C113.917 14.96 113.477 14.92 112.917 14.92H112.357V9.28H112.917C115.237 9.28 117.05 9.46667 118.357 9.84C119.663 10.1867 120.637 10.7733 121.277 11.6C121.863 12.3467 122.237 13.3467 122.397 14.6C122.583 15.8267 122.677 17.5733 122.677 19.84C122.677 21.9467 122.61 23.5867 122.477 24.76C122.37 25.9067 122.09 26.8533 121.637 27.6C121.13 28.4267 120.37 29.0533 119.357 29.48C118.343 29.88 116.943 30.1333 115.157 30.24V19.84ZM112.917 30.32C110.597 30.32 108.783 30.1467 107.477 29.8C106.17 29.4533 105.197 28.8667 104.557 28.04C103.97 27.2933 103.583 26.3067 103.397 25.08C103.237 23.8533 103.157 22.1067 103.157 19.84C103.157 17.76 103.223 16.1333 103.357 14.96C103.49 13.7867 103.783 12.8133 104.237 12.04C104.717 11.1867 105.463 10.56 106.477 10.16C107.49 9.73333 108.89 9.46667 110.677 9.36V19.84C110.677 21.2 110.69 22.0933 110.717 22.52C110.743 23.16 110.823 23.64 110.957 23.96C111.09 24.28 111.317 24.48 111.637 24.56C111.903 24.64 112.33 24.68 112.917 24.68H113.477V30.32H112.917ZM126.647 0.279999H134.047V6.04H126.647V0.279999ZM126.647 9.6H134.047V30H126.647V9.6ZM149.76 0.279999H157.16V30H149.76V0.279999ZM144 30.28C142.934 30.28 142.014 30.1067 141.24 29.76C140.494 29.4133 139.894 28.8533 139.44 28.08C138.934 27.28 138.56 26.2133 138.32 24.88C138.107 23.5467 138 21.88 138 19.88C138 15.96 138.48 13.2133 139.44 11.64C140.347 10.0933 141.867 9.32 144 9.32C144.96 9.32 145.747 9.4 146.36 9.56C146.974 9.69333 147.547 9.97333 148.08 10.4V15.48H147.64C147.054 15.48 146.627 15.52 146.36 15.6C146.12 15.6533 145.934 15.8 145.8 16.04C145.667 16.3333 145.587 16.76 145.56 17.32C145.534 17.72 145.52 18.5467 145.52 19.8C145.52 21.0533 145.534 21.88 145.56 22.28C145.587 22.84 145.667 23.2667 145.8 23.56C145.934 23.8267 146.147 23.9867 146.44 24.04C146.814 24.0933 147.214 24.12 147.64 24.12H148.08V29.2C147.547 29.6 146.947 29.88 146.28 30.04C145.64 30.2 144.88 30.28 144 30.28Z" fill="white"/>
</svg>
