<svg width="172" height="33" viewBox="0 0 172 33" fill="none" xmlns="http://www.w3.org/2000/svg">
<path d="M0.88 31.4C0.88 31.4 0.853333 31.3733 0.8 31.32C0.746667 31.2667 0.72 31.2267 0.72 31.2C0.693333 31.0667 0.653333 30.92 0.6 30.76C0.546667 30.6 0.506667 30.44 0.48 30.28C0.48 30.1733 0.48 30.0667 0.48 29.96C0.506667 29.8267 0.52 29.6933 0.52 29.56C0.546667 29.4533 0.56 29.3733 0.56 29.32C0.613333 29.0267 0.666667 28.7333 0.72 28.44C0.773333 28.1467 0.8 27.8533 0.8 27.56C0.826667 27.32 0.826667 27.08 0.8 26.84C0.8 26.5733 0.8 26.32 0.8 26.08C0.773333 25.8933 0.746667 25.7067 0.72 25.52C0.72 25.3067 0.72 25.1067 0.72 24.92C0.72 24.7067 0.733333 24.5067 0.76 24.32C0.786667 24.1333 0.813333 23.9333 0.84 23.72C0.866667 23.5067 0.893333 23.3067 0.92 23.12C0.946667 22.9067 0.96 22.6933 0.96 22.48C0.96 22.32 0.946667 22.1733 0.92 22.04C0.893333 21.9067 0.866667 21.7733 0.84 21.64C0.813333 21.48 0.786667 21.3333 0.76 21.2C0.76 21.04 0.76 20.88 0.76 20.72C0.76 20.48 0.773333 20.24 0.8 20C0.826667 19.7333 0.853333 19.4667 0.88 19.2C0.906667 18.9333 0.92 18.6667 0.92 18.4C0.92 18.1067 0.92 17.8133 0.92 17.52C0.92 17.4667 0.92 17.3733 0.92 17.24C0.946667 17.0267 0.96 16.8267 0.96 16.64C0.96 16.4533 0.946667 16.2667 0.92 16.08C0.893333 15.8667 0.853333 15.6667 0.8 15.48C0.773333 15.2667 0.733333 15.0667 0.68 14.88C0.626667 14.5867 0.573333 14.3067 0.52 14.04C0.466667 13.7467 0.44 13.4533 0.44 13.16C0.44 12.8933 0.466667 12.64 0.52 12.4C0.6 12.16 0.666667 11.9067 0.72 11.64C0.8 11.24 0.866667 10.84 0.92 10.44C1 10.0133 1.06667 9.58667 1.12 9.16C1.2 8.6 1.18667 8.02667 1.08 7.44C1 6.98667 0.893333 6.54667 0.76 6.12C0.653333 5.69333 0.573333 5.26667 0.52 4.84C0.493333 4.46666 0.493333 4.10666 0.52 3.76C0.573333 3.41333 0.746667 3.10667 1.04 2.84C1.28 2.6 1.54667 2.48 1.84 2.48C2.16 2.45333 2.48 2.45333 2.8 2.48C2.88 2.48 2.94667 2.48 3 2.48C3.42667 2.50667 3.85333 2.54667 4.28 2.6C4.70667 2.62666 5.13333 2.64 5.56 2.64C5.98667 2.64 6.4 2.65333 6.8 2.68C7.2 2.68 7.6 2.69333 8 2.72C8.13333 2.74667 8.26667 2.76 8.4 2.76C8.56 2.76 8.70667 2.77333 8.84 2.8C9.02667 2.85333 9.21333 2.90667 9.4 2.96C9.58667 3.01333 9.76 3.09333 9.92 3.2C10.1867 3.38667 10.4 3.62667 10.56 3.92C10.7467 4.21333 10.9067 4.49333 11.04 4.76C11.28 5.16 11.52 5.56 11.76 5.96C12 6.36 12.2533 6.76 12.52 7.16C12.7067 7.42667 12.92 7.69333 13.16 7.96C13.4 8.22667 13.6133 8.50667 13.8 8.8C13.9333 8.96 14.04 9.13333 14.12 9.32C14.2 9.50667 14.2933 9.70667 14.4 9.92C14.48 10.1333 14.56 10.3333 14.64 10.52C14.7467 10.7067 14.8667 10.9067 15 11.12C15.16 11.3333 15.32 11.5333 15.48 11.72C15.64 11.9067 15.7867 12.1067 15.92 12.32C15.9467 12.3733 15.9733 12.4667 16 12.6C16 12.5733 16.0133 12.5467 16.04 12.52C16.0933 12.44 16.16 12.36 16.24 12.28C16.32 12.2 16.3867 12.12 16.44 12.04C16.6 11.88 16.7467 11.72 16.88 11.56C17.04 11.3733 17.1867 11.1733 17.32 10.96C17.5067 10.6667 17.68 10.3733 17.84 10.08C18.0267 9.76 18.2133 9.44 18.4 9.12C18.8267 8.48 19.24 7.82667 19.64 7.16C20.0667 6.49333 20.5067 5.85333 20.96 5.24C21.2267 4.86666 21.48 4.48 21.72 4.08C21.9867 3.68 22.32 3.37333 22.72 3.16C22.9067 3.05333 23.1067 2.98666 23.32 2.96C23.5333 2.90667 23.7467 2.86667 23.96 2.84C24.3867 2.76 24.8133 2.74667 25.24 2.8C25.6933 2.82666 26.1333 2.86666 26.56 2.92C26.8 2.97333 27.0267 3.01333 27.24 3.04C27.48 3.06667 27.72 3.08 27.96 3.08C28.2 3.10667 28.4533 3.10667 28.72 3.08C28.9867 3.05333 29.24 3.02666 29.48 3C29.5867 3 29.6533 3 29.68 3C29.7333 3 29.8133 2.98666 29.92 2.96C30.2133 2.93333 30.4933 2.93333 30.76 2.96C31.0533 2.96 31.3067 3.08 31.52 3.32C31.84 3.64 31.96 3.98667 31.88 4.36C31.8267 4.73333 31.7467 5.10667 31.64 5.48C31.6133 5.58667 31.5867 5.66667 31.56 5.72C31.48 5.98667 31.4 6.25333 31.32 6.52C31.2667 6.76 31.2133 7.01333 31.16 7.28C31.1067 7.54667 31.08 7.81333 31.08 8.08C31.08 8.34667 31.0533 8.61333 31 8.88C31 9.09333 30.9733 9.30667 30.92 9.52C30.8667 9.73333 30.8133 9.94667 30.76 10.16C30.7067 10.3733 30.6667 10.5867 30.64 10.8C30.6133 11.0133 30.6133 11.24 30.64 11.48C30.64 11.7467 30.6667 12.0133 30.72 12.28C30.8 12.52 30.8533 12.7733 30.88 13.04C30.9067 13.2 30.92 13.36 30.92 13.52C30.9467 13.68 30.96 13.84 30.96 14C31.0133 14.6133 31.0667 15.2267 31.12 15.84C31.2 16.4533 31.24 17.0667 31.24 17.68C31.2667 17.8667 31.28 18.0533 31.28 18.24C31.28 18.4267 31.28 18.6133 31.28 18.8C31.28 18.9333 31.2667 19.08 31.24 19.24C31.24 19.3733 31.2533 19.5067 31.28 19.64C31.28 20.04 31.28 20.44 31.28 20.84C31.3067 21.2133 31.3333 21.6 31.36 22C31.36 22.16 31.36 22.3333 31.36 22.52C31.3867 22.68 31.4133 22.84 31.44 23C31.4667 23.2667 31.48 23.5333 31.48 23.8C31.5067 24.0667 31.52 24.3333 31.52 24.6C31.4933 24.84 31.4667 25.08 31.44 25.32C31.4133 25.56 31.3733 25.8 31.32 26.04C31.2933 26.2267 31.2533 26.4133 31.2 26.6C31.1733 26.7867 31.16 26.9733 31.16 27.16C31.16 27.32 31.1733 27.48 31.2 27.64C31.2267 27.8 31.2533 27.9467 31.28 28.08C31.3333 28.4533 31.36 28.8133 31.36 29.16C31.3867 29.5067 31.2667 29.84 31 30.16C30.8667 30.2933 30.72 30.4 30.56 30.48C30.4267 30.56 30.28 30.6267 30.12 30.68C29.88 30.76 29.6133 30.8133 29.32 30.84C29.0267 30.8667 28.76 30.8933 28.52 30.92C28.1467 30.9467 27.76 30.9733 27.36 31C26.9867 31 26.6133 31 26.24 31C26.1867 31 26.0933 31 25.96 31C25.6667 31 25.3733 31 25.08 31C24.8133 31.0267 24.5333 31.0667 24.24 31.12C24.16 31.1467 24.0667 31.1733 23.96 31.2C23.88 31.2267 23.7867 31.2533 23.68 31.28C23.3867 31.3867 23.0933 31.4533 22.8 31.48C22.5333 31.5333 22.2533 31.4533 21.96 31.24C21.72 31.0267 21.5733 30.7733 21.52 30.48C21.4667 30.16 21.4133 29.8533 21.36 29.56C21.36 29.4267 21.3467 29.3067 21.32 29.2C21.2933 29.0667 21.28 28.9333 21.28 28.8C21.28 28.5867 21.28 28.3733 21.28 28.16C21.3067 27.9467 21.3333 27.7467 21.36 27.56C21.36 27.3467 21.3733 27.1333 21.4 26.92C21.4267 26.7067 21.4267 26.5067 21.4 26.32C21.4 26.0267 21.3733 25.7467 21.32 25.48C21.2667 25.1867 21.24 24.8933 21.24 24.6C21.24 24.3333 21.2533 24.08 21.28 23.84C21.3333 23.5733 21.3867 23.3067 21.44 23.04C21.4667 22.8533 21.4933 22.6667 21.52 22.48C21.5733 22.2933 21.6133 22.0933 21.64 21.88C21.6667 21.5867 21.6667 21.2933 21.64 21C21.6133 20.68 21.5867 20.3733 21.56 20.08C21.56 20 21.5467 19.92 21.52 19.84C21.52 19.76 21.52 19.68 21.52 19.6C21.4667 19.7067 21.4 19.8133 21.32 19.92C21.2667 20 21.2133 20.0933 21.16 20.2C20.8933 20.68 20.6133 21.16 20.32 21.64C20.0267 22.0933 19.7867 22.5867 19.6 23.12C19.44 23.5733 19.28 24.0267 19.12 24.48C18.9867 24.9067 18.6533 25.2133 18.12 25.4C17.9333 25.48 17.72 25.5067 17.48 25.48C17.2667 25.4533 17.0533 25.4267 16.84 25.4C16.76 25.4 16.7067 25.3867 16.68 25.36C16.5467 25.36 16.4133 25.3467 16.28 25.32C16.1467 25.2933 16 25.2667 15.84 25.24C15.4933 25.1867 15.16 25.1467 14.84 25.12C14.52 25.0667 14.2133 24.9333 13.92 24.72C13.6533 24.5067 13.4533 24.2533 13.32 23.96C13.2133 23.64 13.0933 23.3333 12.96 23.04C12.8267 22.72 12.6667 22.4133 12.48 22.12C12.2933 21.8 12.1067 21.4933 11.92 21.2C11.7333 20.96 11.56 20.7333 11.4 20.52C11.24 20.28 11.0667 20.04 10.88 19.8C10.8533 19.7467 10.8133 19.6667 10.76 19.56C10.76 19.6667 10.7467 19.7467 10.72 19.8C10.6667 20.04 10.6133 20.2933 10.56 20.56C10.5067 20.8 10.4667 21.04 10.44 21.28C10.36 21.7333 10.3467 22.2 10.4 22.68C10.4533 23.1333 10.52 23.5733 10.6 24C10.6267 24.1067 10.6267 24.1467 10.6 24.12C10.8133 25.2933 11.0533 26.4133 11.32 27.48C11.32 27.5333 11.3333 27.6133 11.36 27.72C11.4667 28.1467 11.5467 28.5867 11.6 29.04C11.6533 29.4933 11.5067 29.8933 11.16 30.24C11.0533 30.3733 10.9067 30.48 10.72 30.56C10.56 30.6133 10.3867 30.6667 10.2 30.72C9.93333 30.8 9.64 30.84 9.32 30.84C9 30.84 8.70667 30.8533 8.44 30.88C7.85333 30.9333 7.26667 31.0267 6.68 31.16C6.09333 31.2933 5.50667 31.4 4.92 31.48C4.36 31.56 3.78667 31.6 3.2 31.6C2.64 31.6 2.08 31.6267 1.52 31.68C1.52 31.68 1.49333 31.68 1.44 31.68C1.38667 31.6533 1.36 31.64 1.36 31.64L0.88 31.4ZM1.16 31L1.52 31.2C2.08 31.1467 2.64 31.12 3.2 31.12C3.76 31.12 4.32 31.08 4.88 31C5.46667 30.92 6.04 30.8133 6.6 30.68C7.18667 30.5467 7.78667 30.4533 8.4 30.4C8.48 30.3733 8.57333 30.36 8.68 30.36C8.78667 30.36 8.88 30.36 8.96 30.36C9.14667 30.36 9.33333 30.36 9.52 30.36C9.70667 30.3333 9.89333 30.2933 10.08 30.24C10.2133 30.2133 10.3467 30.1733 10.48 30.12C10.6133 30.0667 10.7333 29.9867 10.84 29.88C11.08 29.64 11.1733 29.3333 11.12 28.96C11.0667 28.56 11 28.2 10.92 27.88C10.8933 27.7467 10.8667 27.6533 10.84 27.6C10.5733 26.5067 10.3467 25.3733 10.16 24.2C10.16 24.2 10.1467 24.2 10.12 24.2C10.12 24.1733 10.12 24.16 10.12 24.16C10.04 23.68 9.97333 23.2 9.92 22.72C9.86667 22.2133 9.88 21.7067 9.96 21.2C9.98667 20.96 10.0267 20.72 10.08 20.48C10.16 20.2133 10.2267 19.96 10.28 19.72C10.28 19.6667 10.28 19.56 10.28 19.4C10.28 19.2667 10.28 19.1333 10.28 19C10.3067 18.8667 10.4 18.7867 10.56 18.76C10.72 18.7333 10.84 18.7733 10.92 18.88C11 18.9867 11.0667 19.1067 11.12 19.24C11.1733 19.3733 11.2267 19.4667 11.28 19.52C11.4667 19.76 11.64 20 11.8 20.24C11.96 20.4533 12.1333 20.68 12.32 20.92C12.5067 21.24 12.6933 21.56 12.88 21.88C13.0933 22.1733 13.2667 22.4933 13.4 22.84C13.5067 23.08 13.6133 23.3467 13.72 23.64C13.8267 23.9067 13.9867 24.1333 14.2 24.32C14.4667 24.5333 14.7467 24.6533 15.04 24.68C15.3333 24.7067 15.6267 24.7333 15.92 24.76C16.0533 24.7867 16.1867 24.8133 16.32 24.84C16.4533 24.8667 16.5867 24.8933 16.72 24.92C16.7733 24.92 16.84 24.92 16.92 24.92C17.08 24.9467 17.2533 24.9733 17.44 25C17.6533 25.0267 17.8267 25.0133 17.96 24.96C18.3867 24.8 18.6533 24.52 18.76 24.12C18.8933 23.72 19.0267 23.3333 19.16 22.96C19.3467 22.4267 19.5867 21.92 19.88 21.44C20.1733 20.9333 20.4667 20.44 20.76 19.96C20.84 19.8267 20.9067 19.6933 20.96 19.56C21.04 19.4267 21.12 19.2933 21.2 19.16C21.28 19.0267 21.3333 18.8667 21.36 18.68C21.3867 18.4667 21.52 18.36 21.76 18.36C21.92 18.36 22 18.4267 22 18.56C22 18.6933 22 18.8267 22 18.96C21.9733 19.0933 21.96 19.1867 21.96 19.24C21.96 19.3733 21.9733 19.5067 22 19.64C22.0267 19.7733 22.04 19.9067 22.04 20.04C22.0667 20.36 22.0933 20.68 22.12 21C22.1467 21.2933 22.1467 21.6 22.12 21.92C22.0933 22.1333 22.0533 22.3333 22 22.52C21.9733 22.7067 21.9467 22.8933 21.92 23.08C21.8667 23.32 21.8133 23.5733 21.76 23.84C21.7333 24.08 21.72 24.3333 21.72 24.6C21.72 24.8667 21.7467 25.1467 21.8 25.44C21.8533 25.7333 21.88 26.0133 21.88 26.28C21.9067 26.4933 21.9067 26.7067 21.88 26.92C21.8533 27.1067 21.84 27.3067 21.84 27.52C21.8133 27.7333 21.7867 27.9467 21.76 28.16C21.76 28.3467 21.76 28.5467 21.76 28.76C21.76 28.8933 21.76 29.0267 21.76 29.16C21.7867 29.2667 21.8133 29.3733 21.84 29.48C21.8667 29.72 21.8933 29.9733 21.92 30.24C21.9733 30.5067 22.0933 30.72 22.28 30.88C22.4667 31.04 22.68 31.0933 22.92 31.04C23.1867 30.9867 23.4267 30.9067 23.64 30.8C23.88 30.72 24.04 30.68 24.12 30.68C24.44 30.6 24.7467 30.56 25.04 30.56C25.36 30.5333 25.68 30.52 26 30.52C26.1067 30.52 26.1867 30.52 26.24 30.52C26.6133 30.52 26.9867 30.52 27.36 30.52C27.7333 30.4933 28.1067 30.4667 28.48 30.44C28.6933 30.4133 28.9333 30.4 29.2 30.4C29.4933 30.3733 29.7333 30.32 29.92 30.24C30.0533 30.1867 30.1733 30.1333 30.28 30.08C30.4133 30.0267 30.52 29.96 30.6 29.88C30.8133 29.6133 30.9067 29.32 30.88 29C30.88 28.68 30.8533 28.3467 30.8 28C30.7733 27.8667 30.7467 27.7333 30.72 27.6C30.6933 27.44 30.68 27.2933 30.68 27.16C30.68 26.9467 30.6933 26.7467 30.72 26.56C30.7733 26.3733 30.8133 26.1733 30.84 25.96C30.8933 25.7467 30.9333 25.52 30.96 25.28C31.0133 25.04 31.04 24.8 31.04 24.56C31.04 24.32 31.0267 24.0667 31 23.8C31 23.5333 30.9867 23.28 30.96 23.04C30.9333 22.8533 30.9067 22.68 30.88 22.52C30.88 22.36 30.88 22.1867 30.88 22C30.8533 21.6 30.8267 21.2133 30.8 20.84C30.8 20.44 30.8 20.04 30.8 19.64C30.7733 19.5067 30.76 19.3733 30.76 19.24C30.7867 19.08 30.8 18.9333 30.8 18.8C30.8 18.6133 30.8 18.4267 30.8 18.24C30.8 18.0533 30.7867 17.8667 30.76 17.68C30.76 17.0667 30.72 16.4667 30.64 15.88C30.5867 15.2667 30.5333 14.6533 30.48 14.04C30.48 13.88 30.4667 13.7333 30.44 13.6C30.44 13.44 30.4267 13.28 30.4 13.12C30.3733 12.8533 30.32 12.5867 30.24 12.32C30.1867 12.0533 30.16 11.7867 30.16 11.52C30.1333 11.2533 30.1333 11 30.16 10.76C30.1867 10.52 30.2267 10.28 30.28 10.04C30.3333 9.82667 30.3867 9.62667 30.44 9.44C30.4933 9.22666 30.5333 9.01333 30.56 8.8C30.5867 8.53333 30.6 8.26667 30.6 8C30.6267 7.73333 30.6533 7.46667 30.68 7.2C30.7333 6.90667 30.8 6.64 30.88 6.4C30.96 6.13333 31.04 5.86667 31.12 5.6C31.12 5.52 31.1467 5.42667 31.2 5.32C31.28 5.05333 31.3467 4.77333 31.4 4.48C31.48 4.16 31.4133 3.88 31.2 3.64C31.04 3.48 30.8533 3.4 30.64 3.4C30.4267 3.4 30.2133 3.41333 30 3.44C29.8933 3.46667 29.8 3.48 29.72 3.48C29.6933 3.48 29.64 3.48 29.56 3.48C29.2933 3.50667 29.0133 3.53333 28.72 3.56C28.4533 3.58666 28.1867 3.58666 27.92 3.56C27.7067 3.56 27.48 3.54666 27.24 3.52C27.0267 3.49333 26.8 3.45333 26.56 3.4C26.1333 3.34667 25.7067 3.30667 25.28 3.28C24.88 3.22667 24.4667 3.24 24.04 3.32C23.8533 3.34667 23.6667 3.37333 23.48 3.4C23.2933 3.42667 23.12 3.49333 22.96 3.6C22.6133 3.78666 22.32 4.06667 22.08 4.44C21.84 4.81333 21.6 5.17333 21.36 5.52C20.9067 6.13333 20.4667 6.77333 20.04 7.44C19.64 8.10667 19.2267 8.76 18.8 9.4C18.6133 9.69333 18.44 10 18.28 10.32C18.12 10.64 17.9333 10.9467 17.72 11.24C17.5867 11.4267 17.44 11.6133 17.28 11.8C17.1467 11.9867 16.9867 12.1733 16.8 12.36C16.7467 12.44 16.68 12.52 16.6 12.6C16.5467 12.68 16.48 12.7467 16.4 12.8C16.3733 12.8533 16.3467 12.9333 16.32 13.04C16.2667 13.1467 16.2133 13.24 16.16 13.32C16.1333 13.3733 16.0533 13.3867 15.92 13.36C15.7333 13.28 15.6267 13.16 15.6 13C15.6 12.84 15.56 12.6933 15.48 12.56C15.3467 12.3467 15.2 12.1467 15.04 11.96C14.88 11.7733 14.7333 11.5733 14.6 11.36C14.4667 11.1733 14.3467 10.9733 14.24 10.76C14.1333 10.5467 14.04 10.3333 13.96 10.12C13.88 9.93333 13.8 9.76 13.72 9.6C13.64 9.41333 13.5333 9.24 13.4 9.08C13.2133 8.78667 13 8.50667 12.76 8.24C12.5467 7.97333 12.3333 7.69333 12.12 7.4C11.8533 7.02667 11.6 6.64 11.36 6.24C11.12 5.81333 10.88 5.4 10.64 5C10.5067 4.76 10.36 4.50667 10.2 4.24C10.0667 3.97333 9.88 3.76 9.64 3.6C9.50667 3.52 9.36 3.45333 9.2 3.4C9.04 3.34667 8.88 3.30667 8.72 3.28C8.58667 3.25333 8.45333 3.24 8.32 3.24C8.21333 3.24 8.09333 3.22667 7.96 3.2C7.56 3.17333 7.16 3.16 6.76 3.16C6.36 3.13333 5.96 3.12 5.56 3.12C5.13333 3.12 4.69333 3.10667 4.24 3.08C3.81333 3.02667 3.38667 2.98666 2.96 2.96C2.90667 2.96 2.82667 2.94667 2.72 2.92C2.48 2.92 2.24 2.92 2 2.92C1.76 2.92 1.54667 3.01333 1.36 3.2C1.14667 3.38667 1.02667 3.62667 1 3.92C1 4.21333 1 4.50667 1 4.8C1.05333 5.22666 1.13333 5.65333 1.24 6.08C1.37333 6.50666 1.48 6.93333 1.56 7.36C1.66667 8 1.68 8.62667 1.6 9.24C1.54667 9.64 1.48 10.0533 1.4 10.48C1.34667 10.9067 1.26667 11.3333 1.16 11.76C1.13333 12 1.08 12.24 1 12.48C0.946667 12.6933 0.92 12.92 0.92 13.16C0.92 13.4533 0.946667 13.7467 1 14.04C1.05333 14.3067 1.10667 14.5733 1.16 14.84C1.21333 15.0267 1.25333 15.2267 1.28 15.44C1.33333 15.6267 1.37333 15.8133 1.4 16C1.42667 16.2133 1.44 16.4267 1.44 16.64C1.44 16.8267 1.42667 17.0267 1.4 17.24C1.4 17.3733 1.4 17.48 1.4 17.56C1.4 17.8267 1.4 18.1067 1.4 18.4C1.4 18.6667 1.38667 18.9467 1.36 19.24C1.33333 19.48 1.30667 19.7333 1.28 20C1.25333 20.24 1.24 20.4933 1.24 20.76C1.24 20.8933 1.24 21.04 1.24 21.2C1.26667 21.3333 1.29333 21.4667 1.32 21.6C1.34667 21.76 1.37333 21.9067 1.4 22.04C1.42667 22.1733 1.44 22.32 1.44 22.48C1.44 22.6933 1.42667 22.9067 1.4 23.12C1.37333 23.3067 1.34667 23.5067 1.32 23.72C1.29333 23.9333 1.26667 24.1333 1.24 24.32C1.21333 24.5067 1.2 24.7067 1.2 24.92C1.2 25.1067 1.2 25.3067 1.2 25.52C1.22667 25.7067 1.25333 25.8933 1.28 26.08C1.28 26.3467 1.28 26.6 1.28 26.84C1.30667 27.08 1.30667 27.3333 1.28 27.6C1.28 27.8933 1.25333 28.2 1.2 28.52C1.14667 28.8133 1.09333 29.1067 1.04 29.4C1.04 29.4533 1.02667 29.5333 1 29.64C1 29.7467 0.986667 29.8533 0.96 29.96C0.96 30.04 0.96 30.1333 0.96 30.24C0.96 30.3733 0.986667 30.5067 1.04 30.64C1.09333 30.7733 1.13333 30.8933 1.16 31ZM46.8178 31.64C46.3111 31.5867 45.8045 31.5467 45.2978 31.52C44.7911 31.52 44.2845 31.48 43.7778 31.4C43.3778 31.32 42.9911 31.2 42.6178 31.04C42.2445 30.88 41.8711 30.72 41.4978 30.56C41.0711 30.4 40.6445 30.2267 40.2178 30.04C39.8178 29.8533 39.4311 29.6267 39.0578 29.36C38.8445 29.2 38.6311 29.0267 38.4178 28.84C38.2311 28.6267 38.0578 28.4133 37.8978 28.2C37.5778 27.88 37.2845 27.5333 37.0178 27.16C36.7511 26.7867 36.5378 26.3867 36.3778 25.96C36.2445 25.56 36.1511 25.16 36.0978 24.76C36.0445 24.36 35.9911 23.96 35.9378 23.56C35.7511 22.6533 35.6445 21.7467 35.6178 20.84C35.6178 19.9067 35.5378 18.9867 35.3778 18.08C35.3245 17.5733 35.2178 17.08 35.0578 16.6C34.9245 16.0933 34.8045 15.5867 34.6978 15.08C34.6445 14.7867 34.6178 14.4933 34.6178 14.2C34.6178 13.9067 34.6178 13.6 34.6178 13.28C34.6178 13.2 34.6045 13.12 34.5778 13.04C34.5778 12.9333 34.5778 12.84 34.5778 12.76C34.5778 12.6533 34.5778 12.56 34.5778 12.48C34.5778 12.3733 34.5778 12.28 34.5778 12.2C34.5778 12.0133 34.5645 11.8267 34.5378 11.64C34.5378 11.4533 34.5511 11.2667 34.5778 11.08C34.5778 10.92 34.5911 10.76 34.6178 10.6C34.6445 10.44 34.6578 10.28 34.6578 10.12C34.7111 9.90667 34.7511 9.69333 34.7778 9.48C34.8045 9.24 34.8178 9 34.8178 8.76C34.7911 8.65333 34.7778 8.54667 34.7778 8.44C34.7778 8.30667 34.7645 8.17333 34.7378 8.04C34.7378 7.90667 34.7245 7.77333 34.6978 7.64C34.6978 7.50666 34.6978 7.37333 34.6978 7.24C34.6978 6.94667 34.7111 6.66667 34.7378 6.4C34.7911 6.13333 34.8311 5.86667 34.8578 5.6C34.8845 5.46666 34.9111 5.34666 34.9378 5.24C34.9645 5.10666 34.9778 4.98666 34.9778 4.88C34.9778 4.77333 34.9778 4.62667 34.9778 4.44C34.9778 4.2 34.9911 3.98667 35.0178 3.8C35.0445 3.58667 35.1378 3.37333 35.2978 3.16C35.5111 2.94666 35.7511 2.82666 36.0178 2.8C36.3111 2.74667 36.6045 2.70667 36.8978 2.68C36.9778 2.68 37.0311 2.68 37.0578 2.68C37.3245 2.68 37.5911 2.68 37.8578 2.68C38.1245 2.68 38.3911 2.68 38.6578 2.68C38.7378 2.65333 38.8578 2.64 39.0178 2.64C39.2045 2.64 39.3778 2.64 39.5378 2.64C39.7245 2.61333 39.9111 2.61333 40.0978 2.64C40.4711 2.66667 40.8311 2.72 41.1778 2.8C41.5245 2.88 41.8711 2.93333 42.2178 2.96C42.4578 2.98666 42.6978 3 42.9378 3C43.0178 3 43.1378 3 43.2978 3C43.5645 2.97333 43.8045 2.97333 44.0178 3C44.2578 3.02666 44.4845 3.13333 44.6978 3.32C44.9111 3.53333 45.0311 3.77333 45.0578 4.04C45.0845 4.28 45.0845 4.53333 45.0578 4.8C45.0578 4.93333 45.0578 5.02667 45.0578 5.08C45.0578 5.74667 45.0978 6.41333 45.1778 7.08C45.2578 7.74667 45.3245 8.41333 45.3778 9.08C45.4311 9.72 45.4711 10.3733 45.4978 11.04C45.5245 11.2267 45.5378 11.4133 45.5378 11.6C45.5378 11.76 45.5378 11.9333 45.5378 12.12C45.5378 12.44 45.5378 12.76 45.5378 13.08C45.5378 13.3733 45.5645 13.68 45.6178 14C45.6978 14.72 45.8045 15.4533 45.9378 16.2C46.0978 16.9467 46.1911 17.6933 46.2178 18.44C46.2178 18.6267 46.2045 18.8267 46.1778 19.04C46.1778 19.2267 46.1645 19.4267 46.1378 19.64C46.0578 20.1733 46.0178 20.7067 46.0178 21.24C46.0445 21.7733 46.2445 22.2267 46.6178 22.6C46.7511 22.7333 46.9511 22.8533 47.2178 22.96C47.4045 23.04 47.6311 23.0933 47.8978 23.12C48.0045 23.1467 48.1111 23.16 48.2178 23.16C48.3511 23.1333 48.4845 23.1067 48.6178 23.08C48.9111 23.0533 49.1645 23.0133 49.3778 22.96C49.4845 22.9067 49.5778 22.8667 49.6578 22.84C49.7645 22.8133 49.8711 22.7733 49.9778 22.72C50.3778 22.4533 50.5645 22.0533 50.5378 21.52C50.5378 20.9867 50.4978 20.48 50.4178 20C50.3911 19.8933 50.3645 19.7867 50.3378 19.68C50.3378 19.5733 50.3245 19.48 50.2978 19.4C50.2711 19.2667 50.2445 19.1333 50.2178 19C50.2178 18.84 50.2178 18.6933 50.2178 18.56C50.1378 17.8667 50.1111 17.1733 50.1378 16.48C50.1645 15.76 50.2045 15.0533 50.2578 14.36C50.2845 13.9867 50.3378 13.6133 50.4178 13.24C50.4978 12.8667 50.5778 12.48 50.6578 12.08C50.8178 11.3867 50.9511 10.68 51.0578 9.96C51.1911 9.24 51.2045 8.57333 51.0978 7.96C51.0978 7.93333 51.0978 7.92 51.0978 7.92C51.0711 7.73333 51.0311 7.54667 50.9778 7.36C50.9511 7.17333 50.9245 6.98667 50.8978 6.8C50.8178 6.50666 50.7511 6.21333 50.6978 5.92C50.6711 5.6 50.6578 5.29333 50.6578 5C50.6845 4.65333 50.7245 4.32 50.7778 4C50.8578 3.68 51.0311 3.4 51.2978 3.16C51.5911 2.89333 51.9111 2.73333 52.2578 2.68C52.6311 2.62667 53.0045 2.57333 53.3778 2.52C53.9378 2.46667 54.5111 2.42666 55.0978 2.4C55.6845 2.34667 56.2578 2.28 56.8178 2.2C57.0578 2.2 57.2978 2.18667 57.5378 2.16C57.7778 2.10667 58.0178 2.06666 58.2578 2.04C58.4978 2.04 58.7378 2.05333 58.9778 2.08C59.2178 2.08 59.4711 2.08 59.7378 2.08C59.8711 2.10666 60.0045 2.12 60.1378 2.12C60.2711 2.12 60.4045 2.13333 60.5378 2.16C60.7245 2.21333 60.8978 2.28 61.0578 2.36C61.2178 2.41333 61.3511 2.52 61.4578 2.68C61.5911 2.81333 61.6845 2.97333 61.7378 3.16C61.7911 3.32 61.8311 3.49333 61.8578 3.68C61.8578 3.81333 61.8445 3.94667 61.8178 4.08C61.8178 4.18667 61.8178 4.30667 61.8178 4.44C61.7911 4.54667 61.7778 4.62667 61.7778 4.68C61.7511 5.02666 61.6978 5.37333 61.6178 5.72C61.5645 6.04 61.5111 6.36 61.4578 6.68C61.3511 7.24 61.2711 7.8 61.2178 8.36C61.1645 8.92 61.0711 9.48 60.9378 10.04C60.8578 10.3067 60.7645 10.5867 60.6578 10.88C60.5511 11.1733 60.4978 11.4667 60.4978 11.76C60.4711 12.0533 60.4711 12.3467 60.4978 12.64C60.5511 12.9333 60.6045 13.2133 60.6578 13.48C60.6578 13.5867 60.6578 13.68 60.6578 13.76C60.6845 13.84 60.7111 13.92 60.7378 14C60.7911 14.32 60.8578 14.6267 60.9378 14.92C61.0445 15.2133 61.1245 15.5067 61.1778 15.8C61.2045 16.0667 61.2178 16.3333 61.2178 16.6C61.2178 16.84 61.2045 17.0933 61.1778 17.36C61.1778 17.52 61.1778 17.6933 61.1778 17.88C61.1778 18.04 61.1778 18.2133 61.1778 18.4C61.1778 18.6133 61.1911 18.84 61.2178 19.08C61.2445 19.2933 61.2711 19.5067 61.2978 19.72C61.3511 20.0133 61.3911 20.3067 61.4178 20.6C61.4445 20.8667 61.4578 21.1467 61.4578 21.44C61.4311 22 61.3645 22.5467 61.2578 23.08C61.1778 23.5867 61.0711 24.1067 60.9378 24.64C60.8845 24.9333 60.8178 25.2267 60.7378 25.52C60.6578 25.8133 60.5645 26.1067 60.4578 26.4C60.1111 27.0933 59.6311 27.76 59.0178 28.4C58.4045 29.04 57.7645 29.56 57.0978 29.96C56.6445 30.2 56.1778 30.4267 55.6978 30.64C55.2178 30.8533 54.7245 31.0133 54.2178 31.12C53.8711 31.2267 53.5111 31.28 53.1378 31.28C52.7645 31.28 52.3911 31.3067 52.0178 31.36C51.6978 31.4133 51.3778 31.4667 51.0578 31.52C50.7645 31.5733 50.4711 31.6133 50.1778 31.64C49.8045 31.6933 49.4311 31.7333 49.0578 31.76C48.7111 31.8133 48.3645 31.84 48.0178 31.84C47.9911 31.84 47.9778 31.84 47.9778 31.84C47.9511 31.84 47.9378 31.84 47.9378 31.84L46.8178 31.64ZM46.8578 31.16L47.9778 31.36C48.3511 31.36 48.7111 31.3467 49.0578 31.32C49.4045 31.2933 49.7511 31.2533 50.0978 31.2C50.3911 31.1467 50.6978 31.0933 51.0178 31.04C51.3378 30.9867 51.6445 30.9333 51.9378 30.88C52.3111 30.8267 52.6711 30.8 53.0178 30.8C53.3911 30.8 53.7511 30.76 54.0978 30.68C54.5778 30.5467 55.0445 30.3867 55.4978 30.2C55.9778 29.9867 56.4311 29.76 56.8578 29.52C57.4711 29.1467 58.0711 28.6667 58.6578 28.08C59.2445 27.4667 59.6978 26.84 60.0178 26.2C60.1245 25.9333 60.2045 25.6667 60.2578 25.4C60.3378 25.1067 60.4045 24.8133 60.4578 24.52C60.5911 24.0133 60.6978 23.5067 60.7778 23C60.8845 22.4933 60.9511 21.9733 60.9778 21.44C60.9778 21.1467 60.9645 20.8667 60.9378 20.6C60.9111 20.3067 60.8711 20.0267 60.8178 19.76C60.7911 19.52 60.7645 19.2933 60.7378 19.08C60.7111 18.8667 60.6978 18.64 60.6978 18.4C60.6978 18.24 60.6978 18.08 60.6978 17.92C60.6978 17.7333 60.6978 17.5467 60.6978 17.36C60.7245 17.12 60.7378 16.88 60.7378 16.64C60.7378 16.3733 60.7245 16.12 60.6978 15.88C60.6445 15.56 60.5645 15.2533 60.4578 14.96C60.3778 14.6667 60.3111 14.3733 60.2578 14.08C60.2578 14 60.2445 13.92 60.2178 13.84C60.2178 13.7333 60.2045 13.64 60.1778 13.56C60.1245 13.2667 60.0711 12.9733 60.0178 12.68C59.9911 12.36 59.9911 12.04 60.0178 11.72C60.0178 11.4 60.0711 11.0933 60.1778 10.8C60.2845 10.5067 60.3778 10.2133 60.4578 9.92C60.6178 9.38667 60.7111 8.84 60.7378 8.28C60.7911 7.72 60.8711 7.16 60.9778 6.6C61.0311 6.28 61.0845 5.96 61.1378 5.64C61.2178 5.29333 61.2711 4.96 61.2978 4.64C61.2978 4.58667 61.3111 4.50667 61.3378 4.4C61.3378 4.29333 61.3378 4.18667 61.3378 4.08C61.3645 3.97333 61.3778 3.86666 61.3778 3.76C61.3511 3.62666 61.3111 3.49333 61.2578 3.36C61.2311 3.2 61.1778 3.06667 61.0978 2.96C61.0178 2.88 60.9111 2.81333 60.7778 2.76C60.6445 2.70667 60.5245 2.66667 60.4178 2.64C60.3378 2.61333 60.2445 2.6 60.1378 2.6C60.0578 2.6 59.9778 2.58667 59.8978 2.56C59.8178 2.56 59.7511 2.56 59.6978 2.56C59.4578 2.56 59.2178 2.56 58.9778 2.56C58.7378 2.53333 58.5111 2.52 58.2978 2.52C58.0578 2.54667 57.8178 2.58667 57.5778 2.64C57.3378 2.66667 57.0978 2.68 56.8578 2.68C56.2978 2.76 55.7245 2.82667 55.1378 2.88C54.5778 2.90667 54.0045 2.94667 53.4178 3C53.1245 3.02666 52.8045 3.06666 52.4578 3.12C52.1378 3.14667 51.8578 3.26667 51.6178 3.48C51.4045 3.69333 51.2711 3.93333 51.2178 4.2C51.1911 4.46667 51.1645 4.73333 51.1378 5C51.1378 5.29333 51.1511 5.58666 51.1778 5.88C51.2311 6.17333 51.2978 6.46667 51.3778 6.76C51.4045 6.94667 51.4311 7.13333 51.4578 7.32C51.5111 7.50667 51.5378 7.69333 51.5378 7.88C51.6711 8.52 51.6711 9.21333 51.5378 9.96C51.4311 10.68 51.2978 11.4 51.1378 12.12C51.0578 12.4933 50.9778 12.88 50.8978 13.28C50.8178 13.6533 50.7645 14.0267 50.7378 14.4C50.6845 15.0667 50.6445 15.7467 50.6178 16.44C50.5911 17.1333 50.6178 17.8267 50.6978 18.52C50.6978 18.6533 50.6978 18.7867 50.6978 18.92C50.7245 19.0533 50.7511 19.1867 50.7778 19.32C50.7778 19.4267 50.7911 19.5333 50.8178 19.64C50.8445 19.7467 50.8711 19.8533 50.8978 19.96C50.9778 20.52 51.0178 21.1067 51.0178 21.72C51.0178 22.3067 50.7511 22.7733 50.2178 23.12C50.1111 23.1733 49.9911 23.2267 49.8578 23.28C49.7511 23.3333 49.6311 23.3733 49.4978 23.4C49.2578 23.48 48.9911 23.5333 48.6978 23.56C48.5378 23.5867 48.3911 23.6133 48.2578 23.64C48.1245 23.64 47.9911 23.6267 47.8578 23.6C47.5378 23.5733 47.2578 23.5067 47.0178 23.4C46.7245 23.2667 46.4711 23.1067 46.2578 22.92C45.8311 22.4933 45.6045 22 45.5778 21.44C45.5511 20.8533 45.5778 20.28 45.6578 19.72C45.6845 19.5067 45.6978 19.2933 45.6978 19.08C45.7245 18.8667 45.7378 18.6533 45.7378 18.44C45.7111 17.72 45.6178 16.9867 45.4578 16.24C45.3245 15.4933 45.2178 14.76 45.1378 14.04C45.0845 13.5333 45.0578 13.04 45.0578 12.56C45.0578 12.0533 45.0445 11.5467 45.0178 11.04C44.9911 10.4 44.9511 9.76 44.8978 9.12C44.8445 8.45333 44.7778 7.78667 44.6978 7.12C44.6178 6.45333 44.5778 5.77333 44.5778 5.08C44.5778 5 44.5778 4.90667 44.5778 4.8C44.6045 4.58666 44.6045 4.38667 44.5778 4.2C44.5778 3.98667 44.4978 3.81333 44.3378 3.68C44.2045 3.54667 44.0445 3.48 43.8578 3.48C43.6711 3.45333 43.4711 3.45333 43.2578 3.48C43.1245 3.48 43.0178 3.48 42.9378 3.48C42.6711 3.48 42.4178 3.46667 42.1778 3.44C41.8311 3.41333 41.4845 3.36 41.1378 3.28C40.7911 3.2 40.4311 3.14667 40.0578 3.12C39.8978 3.09333 39.7245 3.09333 39.5378 3.12C39.3778 3.12 39.2045 3.12 39.0178 3.12C38.8578 3.12 38.7378 3.13333 38.6578 3.16C38.3911 3.16 38.1245 3.16 37.8578 3.16C37.6178 3.16 37.3645 3.16 37.0978 3.16C37.0445 3.16 36.9645 3.16 36.8578 3.16C36.6445 3.16 36.4311 3.18667 36.2178 3.24C36.0045 3.26667 35.8178 3.34667 35.6578 3.48C35.5511 3.64 35.4845 3.81333 35.4578 4C35.4311 4.16 35.4311 4.33333 35.4578 4.52C35.4578 4.68 35.4578 4.8 35.4578 4.88C35.4578 5.01333 35.4445 5.14667 35.4178 5.28C35.3911 5.41333 35.3645 5.53333 35.3378 5.64C35.3111 5.90667 35.2711 6.17333 35.2178 6.44C35.1911 6.70667 35.1778 6.97333 35.1778 7.24C35.1778 7.37333 35.1778 7.50666 35.1778 7.64C35.2045 7.77333 35.2178 7.90667 35.2178 8.04C35.2445 8.17333 35.2578 8.29333 35.2578 8.4C35.2578 8.50667 35.2711 8.62666 35.2978 8.76C35.2978 9 35.2845 9.24 35.2578 9.48C35.2311 9.69333 35.1911 9.92 35.1378 10.16C35.1378 10.32 35.1245 10.48 35.0978 10.64C35.0711 10.8 35.0578 10.96 35.0578 11.12C35.0311 11.3067 35.0178 11.4933 35.0178 11.68C35.0445 11.84 35.0578 12.0133 35.0578 12.2C35.0578 12.28 35.0578 12.3733 35.0578 12.48C35.0578 12.56 35.0578 12.64 35.0578 12.72C35.0578 12.8267 35.0578 12.9333 35.0578 13.04C35.0845 13.12 35.0978 13.2 35.0978 13.28C35.0978 13.5733 35.0978 13.8667 35.0978 14.16C35.0978 14.4533 35.1245 14.7333 35.1778 15C35.2845 15.5067 35.4045 16.0133 35.5378 16.52C35.6978 17 35.8045 17.4933 35.8578 18C36.0178 18.9067 36.0978 19.8267 36.0978 20.76C36.0978 21.6667 36.2045 22.56 36.4178 23.44C36.4711 23.84 36.5111 24.24 36.5378 24.64C36.5911 25.04 36.6978 25.4267 36.8578 25.8C36.9911 26.2 37.1778 26.5733 37.4178 26.92C37.6845 27.2667 37.9645 27.5867 38.2578 27.88C38.4178 28.0933 38.5911 28.2933 38.7778 28.48C38.9645 28.6667 39.1511 28.8267 39.3378 28.96C39.6845 29.2267 40.0578 29.4533 40.4578 29.64C40.8578 29.8 41.2578 29.96 41.6578 30.12C42.0311 30.28 42.3911 30.44 42.7378 30.6C43.1111 30.7333 43.4845 30.84 43.8578 30.92C44.3645 31 44.8578 31.04 45.3378 31.04C45.8445 31.0667 46.3511 31.1067 46.8578 31.16ZM64.9816 22.96C64.9549 22.96 64.9149 22.9333 64.8616 22.88C64.7816 22.8267 64.7416 22.7867 64.7416 22.76C64.6882 22.6267 64.6216 22.5067 64.5416 22.4C64.4882 22.2667 64.4482 22.1333 64.4216 22C64.4216 21.92 64.4216 21.84 64.4216 21.76C64.4216 21.68 64.4349 21.5867 64.4616 21.48C64.4616 21.3733 64.4616 21.2933 64.4616 21.24C64.4882 21 64.5016 20.76 64.5016 20.52C64.5282 20.2533 64.5549 20 64.5816 19.76C64.6082 19.2267 64.6216 18.6933 64.6216 18.16C64.6482 17.6 64.6882 17.04 64.7416 16.48C64.7682 16.1867 64.7949 15.88 64.8216 15.56C64.8749 15.24 65.0216 14.96 65.2616 14.72C65.5549 14.4 65.9149 14.2267 66.3416 14.2C66.7682 14.1467 67.1816 14.12 67.5816 14.12C67.6616 14.12 67.7282 14.12 67.7816 14.12C68.3416 14.1467 68.9149 14.2 69.5016 14.28C70.0882 14.3333 70.6616 14.4267 71.2216 14.56C71.7816 14.6933 72.3416 14.84 72.9016 15C73.4616 15.1333 74.0349 15.2133 74.6216 15.24C75.1016 15.2667 75.5682 15.2667 76.0216 15.24C76.5016 15.2133 76.9682 15.1467 77.4216 15.04C77.5282 15.0133 77.6349 14.9867 77.7416 14.96C77.8749 14.9333 78.0082 14.8933 78.1416 14.84C78.6216 14.7067 79.1016 14.6133 79.5816 14.56C80.0616 14.48 80.5149 14.6267 80.9416 15C81.3416 15.32 81.5149 15.6667 81.4616 16.04C81.4082 16.3867 81.3149 16.7333 81.1816 17.08C81.1549 17.1867 81.1282 17.2933 81.1016 17.4C81.0749 17.48 81.0482 17.5733 81.0216 17.68C81.0216 17.68 81.0082 17.7067 80.9816 17.76C80.9549 17.7867 80.9416 17.8 80.9416 17.8C80.7816 17.96 80.7149 18.08 80.7416 18.16C80.7949 18.2133 80.8482 18.28 80.9016 18.36C80.9816 18.4133 81.0349 18.5067 81.0616 18.64C81.0882 18.7467 80.9549 18.96 80.6616 19.28C80.5816 19.5467 80.4882 19.8133 80.3816 20.08C80.3016 20.3467 80.2082 20.6133 80.1016 20.88C79.9949 21.2 79.8882 21.5467 79.7816 21.92C79.6749 22.2667 79.5016 22.5733 79.2616 22.84C78.9949 23.1067 78.7016 23.3067 78.3816 23.44C78.0616 23.5467 77.7282 23.64 77.3816 23.72C76.7149 23.9333 75.9949 24.04 75.2216 24.04C74.4482 24.04 73.7016 24 72.9816 23.92C72.2349 23.84 71.4749 23.7733 70.7016 23.72C69.9282 23.6667 69.1549 23.5733 68.3816 23.44C67.9816 23.4133 67.5682 23.3733 67.1416 23.32C66.7416 23.24 66.3282 23.1733 65.9016 23.12C65.8749 23.12 65.8616 23.12 65.8616 23.12L64.9816 22.96ZM65.1416 22.52L65.9416 22.64C66.3682 22.6933 66.7816 22.76 67.1816 22.84C67.6082 22.8933 68.0349 22.9467 68.4616 23C69.2082 23.1067 69.9682 23.1867 70.7416 23.24C71.5149 23.2933 72.2882 23.36 73.0616 23.44C73.7282 23.52 74.4349 23.56 75.1816 23.56C75.9282 23.56 76.6216 23.4667 77.2616 23.28C77.5549 23.2 77.8482 23.1067 78.1416 23C78.4349 22.8933 78.6882 22.7333 78.9016 22.52C79.1149 22.28 79.2616 22 79.3416 21.68C79.4482 21.3333 79.5549 21.0133 79.6616 20.72C79.7416 20.4533 79.8349 20.1867 79.9416 19.92C80.0482 19.6267 80.1416 19.3467 80.2216 19.08C80.2216 19.08 80.2216 19.0667 80.2216 19.04C80.2482 19.0133 80.2616 19 80.2616 19C80.4749 18.7867 80.5682 18.64 80.5416 18.56C80.5149 18.48 80.4616 18.4133 80.3816 18.36C80.3016 18.3067 80.2482 18.2267 80.2216 18.12C80.1949 18.0133 80.3016 17.8133 80.5416 17.52C80.5682 17.44 80.5949 17.36 80.6216 17.28C80.6482 17.2 80.6882 17.12 80.7416 17.04C80.8482 16.7467 80.9282 16.4533 80.9816 16.16C81.0349 15.8667 80.9149 15.6 80.6216 15.36C80.2749 15.0667 79.8882 14.96 79.4616 15.04C79.0349 15.0933 78.6216 15.1867 78.2216 15.32C78.0882 15.3467 77.9682 15.3867 77.8616 15.44C77.7549 15.4667 77.6482 15.4933 77.5416 15.52C77.0616 15.6267 76.5682 15.6933 76.0616 15.72C75.5816 15.7467 75.1016 15.7467 74.6216 15.72C74.0082 15.6933 73.4082 15.6133 72.8216 15.48C72.2616 15.32 71.6882 15.1733 71.1016 15.04C70.5416 14.9067 69.9816 14.8133 69.4216 14.76C68.8882 14.68 68.3416 14.6267 67.7816 14.6C67.7282 14.6 67.6482 14.6 67.5416 14.6C67.1949 14.6 66.8349 14.6133 66.4616 14.64C66.1149 14.6667 65.8349 14.8 65.6216 15.04C65.4349 15.2267 65.3282 15.4667 65.3016 15.76C65.2749 16.0267 65.2482 16.2933 65.2216 16.56C65.1682 17.0933 65.1282 17.6267 65.1016 18.16C65.1016 18.6933 65.0882 19.24 65.0616 19.8C65.0349 20.04 65.0082 20.2933 64.9816 20.56C64.9816 20.8 64.9682 21.04 64.9416 21.28C64.9416 21.3333 64.9416 21.4133 64.9416 21.52C64.9149 21.7067 64.9016 21.84 64.9016 21.92C64.9282 22.0267 64.9549 22.1333 64.9816 22.24C65.0349 22.32 65.0882 22.4133 65.1416 22.52ZM90.5597 31C90.5064 31.08 90.413 31.12 90.2797 31.12C90.173 31.12 90.093 31.08 90.0397 31C89.9064 30.84 89.773 30.68 89.6397 30.52C89.5064 30.36 89.3997 30.2 89.3197 30.04C89.1597 29.7467 89.0397 29.4533 88.9597 29.16C88.8797 28.8667 88.7864 28.5733 88.6797 28.28C88.5464 27.9333 88.413 27.5733 88.2797 27.2C88.1464 26.8267 87.9864 26.4667 87.7997 26.12C87.613 25.72 87.413 25.32 87.1997 24.92C86.9864 24.52 86.7864 24.1067 86.5997 23.68C86.4397 23.3067 86.3064 22.9333 86.1997 22.56C86.093 22.16 85.973 21.7733 85.8397 21.4C85.7064 21.2667 85.573 21.1067 85.4397 20.92C85.3064 20.7067 85.333 20.5067 85.5197 20.32C85.5197 20.2933 85.533 20.28 85.5597 20.28C85.5064 20.2 85.413 20.1067 85.2797 20C85.2797 20 85.2664 19.9733 85.2397 19.92C85.2397 19.8933 85.2264 19.88 85.1997 19.88C85.1197 19.64 85.0397 19.4 84.9597 19.16C84.9064 18.8933 84.8397 18.64 84.7597 18.4C84.573 17.8933 84.333 17.4133 84.0397 16.96C83.773 16.5067 83.5864 16.0133 83.4797 15.48C83.4264 15.2133 83.3864 14.96 83.3597 14.72C83.3597 14.4533 83.3464 14.2 83.3197 13.96C83.2397 13.5867 83.1464 13.2133 83.0397 12.84C82.9597 12.4667 82.893 12.08 82.8397 11.68C82.813 11.44 82.7864 11.2 82.7597 10.96C82.733 10.6933 82.7064 10.4267 82.6797 10.16C82.6264 9.76 82.5464 9.36 82.4397 8.96C82.3597 8.56 82.293 8.16 82.2397 7.76C82.1597 7.36 82.093 6.96 82.0397 6.56C82.013 6.16 81.9464 5.76 81.8397 5.36C81.813 5.22667 81.7864 5.08 81.7597 4.92C81.733 4.76 81.693 4.6 81.6397 4.44C81.5597 4.44 81.5064 4.41333 81.4797 4.36C81.453 4.30667 81.413 4.26667 81.3597 4.24C81.333 4.24 81.293 4.22667 81.2397 4.2C81.133 4.14667 81.053 4.10666 80.9997 4.08C80.9464 4.02667 80.9464 3.93333 80.9997 3.8C81.1064 3.61333 81.213 3.44 81.3197 3.28C81.453 3.09333 81.5997 2.93333 81.7597 2.8C81.8664 2.72 81.9597 2.68 82.0397 2.68C82.1197 2.68 82.1997 2.68 82.2797 2.68C82.3864 2.68 82.4664 2.68 82.5197 2.68C82.6264 2.68 82.733 2.68 82.8397 2.68C82.973 2.68 83.093 2.68 83.1997 2.68C83.5997 2.65333 83.9997 2.64 84.3997 2.64C84.7997 2.61333 85.1864 2.61333 85.5597 2.64C86.1197 2.66667 86.6664 2.70667 87.1997 2.76C87.7597 2.78667 88.3197 2.81333 88.8797 2.84C89.253 2.86667 89.613 2.90667 89.9597 2.96C90.333 2.98666 90.6797 3.10666 90.9997 3.32C91.4264 3.64 91.7197 4.06667 91.8797 4.6C92.0664 5.10667 92.2397 5.6 92.3997 6.08C92.533 6.42667 92.653 6.78667 92.7597 7.16C92.8664 7.53333 92.9464 7.90667 92.9997 8.28C93.0264 8.52 93.0397 8.76 93.0397 9C93.0397 9.21333 93.0397 9.44 93.0397 9.68C93.0397 9.92 93.0397 10.16 93.0397 10.4C93.0397 10.64 93.053 10.88 93.0797 11.12C93.133 11.5733 93.2397 12.0267 93.3997 12.48C93.5864 12.9067 93.7597 13.3467 93.9197 13.8C94.133 14.3867 94.3464 14.9733 94.5597 15.56C94.773 16.12 94.9597 16.6933 95.1197 17.28C95.1464 17.4133 95.173 17.52 95.1997 17.6C95.2264 17.4933 95.2664 17.36 95.3197 17.2C95.3997 16.88 95.493 16.5733 95.5997 16.28C95.7064 15.96 95.7997 15.64 95.8797 15.32C95.9864 14.9467 96.0797 14.5733 96.1597 14.2C96.2397 13.8267 96.3197 13.4533 96.3997 13.08C96.5064 12.52 96.6264 11.9733 96.7597 11.44C96.9197 10.88 97.0797 10.32 97.2397 9.76C97.3197 9.49333 97.413 9.24 97.5197 9C97.653 8.73333 97.7597 8.46667 97.8397 8.2C97.9464 7.85333 98.0264 7.49333 98.0797 7.12C98.133 6.74667 98.1997 6.38667 98.2797 6.04C98.3864 5.50667 98.5197 4.96 98.6797 4.4C98.8664 3.81333 99.1864 3.34667 99.6397 3C99.9597 2.73333 100.306 2.57333 100.68 2.52C101.08 2.46667 101.48 2.46667 101.88 2.52C102.066 2.52 102.24 2.53333 102.4 2.56C102.586 2.56 102.773 2.57333 102.96 2.6C103.306 2.65333 103.666 2.69333 104.04 2.72C104.413 2.74667 104.786 2.74667 105.16 2.72C105.613 2.69333 106.066 2.68 106.52 2.68C107 2.65333 107.466 2.62666 107.92 2.6C108 2.57333 108.093 2.54667 108.2 2.52C108.306 2.49333 108.4 2.48 108.48 2.48C108.586 2.48 108.693 2.50666 108.8 2.56C109.013 2.69333 109.186 2.85333 109.32 3.04C109.453 3.2 109.586 3.37333 109.72 3.56C109.8 3.64 109.813 3.76 109.76 3.92C109.76 3.94666 109.746 3.96 109.72 3.96C109.72 4.04 109.706 4.12 109.68 4.2C109.653 4.25333 109.626 4.32 109.6 4.4C109.52 4.64 109.413 4.89333 109.28 5.16C109.173 5.4 109.053 5.64 108.92 5.88C108.68 6.38667 108.493 6.92 108.36 7.48C108.226 8.01333 108.053 8.53333 107.84 9.04C107.68 9.38667 107.493 9.72 107.28 10.04C107.066 10.3333 106.893 10.6667 106.76 11.04C106.706 11.2533 106.653 11.4667 106.6 11.68C106.573 11.8933 106.533 12.1067 106.48 12.32C106.426 12.5333 106.373 12.7467 106.32 12.96C106.293 13.1733 106.253 13.3867 106.2 13.6C106.173 13.84 106.146 14.08 106.12 14.32C106.093 14.5333 106.053 14.76 106 15C105.92 15.4 105.8 15.8133 105.64 16.24C105.48 16.64 105.36 17.0533 105.28 17.48C105.173 17.96 105.093 18.4533 105.04 18.96C105.013 19.4667 104.933 19.96 104.8 20.44C104.693 20.8133 104.546 21.1867 104.36 21.56C104.2 21.9067 104.066 22.2667 103.96 22.64C103.8 23.0933 103.666 23.56 103.56 24.04C103.453 24.4933 103.346 24.9467 103.24 25.4C103.16 25.72 103.093 26.04 103.04 26.36C102.986 26.6533 102.906 26.9467 102.8 27.24C102.666 27.5867 102.493 27.92 102.28 28.24C102.066 28.5333 101.866 28.84 101.68 29.16C101.546 29.48 101.426 29.8 101.32 30.12C101.213 30.4133 101.026 30.68 100.76 30.92C100.466 31.1333 100.173 31.2533 99.8797 31.28C99.5864 31.3067 99.293 31.3067 98.9997 31.28C98.893 31.28 98.7864 31.2667 98.6797 31.24C98.573 31.24 98.4664 31.2533 98.3597 31.28C98.1464 31.28 97.9197 31.2933 97.6797 31.32C97.4664 31.3467 97.253 31.3733 97.0397 31.4C96.4264 31.4533 95.7997 31.4933 95.1597 31.52C94.5464 31.5467 93.933 31.52 93.3197 31.44C92.9197 31.4133 92.5464 31.32 92.1997 31.16C91.853 31.0267 91.5064 30.92 91.1597 30.84C91.0797 30.84 90.9997 30.84 90.9197 30.84C90.8397 30.8133 90.7597 30.8 90.6797 30.8L90.5597 31ZM82.0397 4.16C82.0397 4.13333 82.0397 4.13333 82.0397 4.16C82.093 4.34667 82.1464 4.53333 82.1997 4.72C82.253 4.90667 82.293 5.08 82.3197 5.24C82.3997 5.64 82.4664 6.05333 82.5197 6.48C82.573 6.88 82.6397 7.28 82.7197 7.68C82.773 8.08 82.8397 8.48 82.9197 8.88C83.0264 9.28 83.1064 9.69333 83.1597 10.12C83.1864 10.36 83.213 10.6133 83.2397 10.88C83.2664 11.1467 83.293 11.4 83.3197 11.64C83.373 12.0133 83.4397 12.3867 83.5197 12.76C83.6264 13.1333 83.7064 13.5067 83.7597 13.88C83.813 14.12 83.8397 14.3733 83.8397 14.64C83.8664 14.88 83.9064 15.12 83.9597 15.36C84.0664 15.8667 84.253 16.3467 84.5197 16.8C84.7864 17.2533 85.013 17.72 85.1997 18.2C85.2797 18.44 85.3464 18.6933 85.3997 18.96C85.4797 19.2 85.5597 19.44 85.6397 19.68C85.8797 19.92 85.9997 20.0933 85.9997 20.2C86.0264 20.3067 86.0264 20.3867 85.9997 20.44C85.9464 20.52 85.9197 20.6 85.9197 20.68C85.9464 20.76 86.053 20.9067 86.2397 21.12C86.2397 21.12 86.253 21.12 86.2797 21.12C86.2797 21.1467 86.2797 21.16 86.2797 21.16C86.413 21.56 86.533 21.96 86.6397 22.36C86.7464 22.7333 86.8797 23.12 87.0397 23.52C87.2264 23.92 87.413 24.32 87.5997 24.72C87.813 25.12 88.0264 25.52 88.2397 25.92C88.4264 26.2667 88.5864 26.6267 88.7197 27C88.8797 27.3733 89.0264 27.7467 89.1597 28.12C89.2397 28.4133 89.3197 28.7067 89.3997 29C89.4797 29.2667 89.5864 29.5333 89.7197 29.8C89.9064 30.12 90.133 30.3067 90.3997 30.36C90.4264 30.36 90.453 30.3467 90.4797 30.32C90.5064 30.32 90.533 30.32 90.5597 30.32C90.6664 30.32 90.773 30.3333 90.8797 30.36C91.013 30.36 91.133 30.3733 91.2397 30.4C91.613 30.48 91.9597 30.5867 92.2797 30.72C92.6264 30.8533 92.9864 30.9333 93.3597 30.96C93.973 31.04 94.5864 31.0667 95.1997 31.04C95.813 31.0133 96.413 30.9733 96.9997 30.92C97.2397 30.8933 97.4664 30.8667 97.6797 30.84C97.893 30.8133 98.1064 30.8 98.3197 30.8C98.4264 30.7733 98.5197 30.7733 98.5997 30.8C98.7064 30.8 98.813 30.8 98.9197 30.8C99.1864 30.8267 99.453 30.84 99.7197 30.84C99.9864 30.8133 100.226 30.7067 100.44 30.52C100.68 30.3333 100.84 30.0933 100.92 29.8C101.026 29.5067 101.133 29.2267 101.24 28.96C101.426 28.64 101.626 28.3333 101.84 28.04C102.053 27.7467 102.213 27.4267 102.32 27.08C102.426 26.7867 102.506 26.4933 102.56 26.2C102.64 25.88 102.706 25.5733 102.76 25.28C102.866 24.8267 102.973 24.36 103.08 23.88C103.213 23.4 103.346 22.9333 103.48 22.48C103.613 22.1067 103.76 21.7467 103.92 21.4C104.106 21.0533 104.253 20.6933 104.36 20.32C104.466 19.84 104.533 19.36 104.56 18.88C104.613 18.3733 104.693 17.88 104.8 17.4C104.88 16.9733 105 16.56 105.16 16.16C105.32 15.7333 105.453 15.3067 105.56 14.88C105.613 14.64 105.64 14.4133 105.64 14.2C105.666 13.96 105.706 13.7333 105.76 13.52C105.786 13.3067 105.826 13.0933 105.88 12.88C105.933 12.6667 105.973 12.44 106 12.2C106.053 11.9867 106.093 11.7733 106.12 11.56C106.173 11.32 106.24 11.08 106.32 10.84C106.453 10.4933 106.626 10.16 106.84 9.84C107.053 9.52 107.24 9.18667 107.4 8.84C107.613 8.33333 107.786 7.81333 107.92 7.28C108.08 6.72 108.266 6.18667 108.48 5.68C108.613 5.44 108.733 5.2 108.84 4.96C108.973 4.72 109.08 4.46667 109.16 4.2C109.186 4.14667 109.2 4.09333 109.2 4.04C109.226 3.96 109.253 3.89333 109.28 3.84C109.28 3.81333 109.28 3.8 109.28 3.8C109.173 3.64 109.066 3.49333 108.96 3.36C108.853 3.2 108.72 3.08 108.56 3C108.506 2.94667 108.373 2.94667 108.16 3C108.08 3.02666 108.026 3.04 108 3.04C107.52 3.09333 107.04 3.13333 106.56 3.16C106.106 3.16 105.64 3.17333 105.16 3.2C104.786 3.22667 104.413 3.22667 104.04 3.2C103.666 3.17333 103.293 3.13333 102.92 3.08C102.76 3.05333 102.586 3.04 102.4 3.04C102.213 3.01333 102.04 3 101.88 3C101.533 2.97333 101.186 2.97333 100.84 3C100.52 3.02666 100.213 3.14666 99.9197 3.36C99.5464 3.68 99.2797 4.10667 99.1197 4.64C98.9597 5.17333 98.8397 5.66666 98.7597 6.12C98.6797 6.49333 98.613 6.86667 98.5597 7.24C98.5064 7.61333 98.4264 7.97333 98.3197 8.32C98.2397 8.61333 98.133 8.89333 97.9997 9.16C97.893 9.4 97.7997 9.65333 97.7197 9.92C97.533 10.4533 97.373 11 97.2397 11.56C97.1064 12.0933 96.9864 12.6267 96.8797 13.16C96.773 13.5333 96.6797 13.92 96.5997 14.32C96.5464 14.6933 96.4664 15.08 96.3597 15.48C96.253 15.7733 96.1464 16.08 96.0397 16.4C95.9597 16.6933 95.8797 17 95.7997 17.32C95.7464 17.5067 95.693 17.7067 95.6397 17.92C95.5864 18.1333 95.5197 18.3467 95.4397 18.56C95.4664 18.6133 95.493 18.68 95.5197 18.76C95.5464 18.8933 95.4664 18.9733 95.2797 19C95.253 19 95.2264 19 95.1997 19C95.173 19 95.1464 18.9867 95.1197 18.96C94.933 18.9333 94.8664 18.8667 94.9197 18.76C94.9197 18.68 94.933 18.6133 94.9597 18.56C94.9064 18.3733 94.853 18.1867 94.7997 18C94.7464 17.8133 94.7064 17.6267 94.6797 17.44C94.493 16.8267 94.293 16.24 94.0797 15.68C93.8664 15.0933 93.6664 14.52 93.4797 13.96C93.3197 13.5067 93.1464 13.0533 92.9597 12.6C92.7997 12.1467 92.6797 11.68 92.5997 11.2C92.573 10.96 92.5597 10.72 92.5597 10.48C92.5597 10.24 92.5597 10 92.5597 9.76C92.5597 9.52 92.5597 9.28 92.5597 9.04C92.5597 8.8 92.5464 8.56 92.5197 8.32C92.493 7.97333 92.413 7.62666 92.2797 7.28C92.173 6.90666 92.0664 6.54667 91.9597 6.2C91.8264 5.77333 91.6797 5.32 91.5197 4.84C91.3597 4.36 91.093 3.98666 90.7197 3.72C90.453 3.53333 90.1464 3.42667 89.7997 3.4C89.4797 3.37333 89.1597 3.34667 88.8397 3.32C88.3064 3.29333 87.7597 3.26667 87.1997 3.24C86.6664 3.18667 86.1197 3.14667 85.5597 3.12C85.1597 3.09333 84.7597 3.09333 84.3597 3.12C83.9864 3.12 83.5997 3.13333 83.1997 3.16C83.093 3.16 82.9864 3.16 82.8797 3.16C82.773 3.16 82.6664 3.16 82.5597 3.16C82.533 3.16 82.4797 3.16 82.3997 3.16C82.213 3.13333 82.1064 3.13333 82.0797 3.16C81.9464 3.24 81.8397 3.34667 81.7597 3.48C81.6797 3.58667 81.613 3.69333 81.5597 3.8C81.5864 3.82667 81.613 3.86667 81.6397 3.92C81.6664 3.94666 81.693 3.96 81.7197 3.96C81.7197 3.98667 81.7464 3.97333 81.7997 3.92C81.853 3.89333 81.8797 3.89333 81.8797 3.92C81.933 3.97333 81.9864 4.05333 82.0397 4.16ZM119.357 31.92C119.303 31.92 119.21 31.92 119.077 31.92C118.997 31.92 118.903 31.92 118.797 31.92C118.717 31.92 118.623 31.92 118.517 31.92C118.09 31.8667 117.663 31.76 117.237 31.6C116.837 31.4667 116.437 31.3467 116.037 31.24C115.77 31.1867 115.503 31.1333 115.237 31.08C114.97 31.0533 114.703 31 114.437 30.92C114.037 30.7867 113.677 30.6133 113.357 30.4C113.063 30.16 112.743 29.9333 112.397 29.72C112.05 29.48 111.69 29.2533 111.317 29.04C110.943 28.8 110.61 28.5067 110.317 28.16C110.023 27.8133 109.797 27.44 109.637 27.04C109.477 26.6133 109.317 26.2 109.157 25.8C108.997 25.3467 108.823 24.9067 108.637 24.48C108.45 24.0267 108.33 23.56 108.277 23.08C108.223 22.76 108.197 22.4533 108.197 22.16C108.197 21.84 108.197 21.52 108.197 21.2C108.197 21.0667 108.197 20.9867 108.197 20.96C108.197 20.5867 108.197 20.2267 108.197 19.88C108.223 19.5067 108.263 19.1333 108.317 18.76C108.343 18.4667 108.383 18.1733 108.437 17.88C108.517 17.56 108.583 17.24 108.637 16.92C108.717 16.6 108.77 16.28 108.797 15.96C108.85 15.6133 108.943 15.28 109.077 14.96C109.263 14.4267 109.543 13.92 109.917 13.44C110.237 12.9867 110.597 12.5467 110.997 12.12C111.423 11.6667 111.903 11.3067 112.437 11.04C112.783 10.88 113.143 10.7733 113.517 10.72C113.89 10.6667 114.277 10.6133 114.677 10.56C115.05 10.48 115.437 10.4 115.837 10.32C116.237 10.24 116.637 10.1867 117.037 10.16C117.197 10.16 117.357 10.16 117.517 10.16C117.677 10.16 117.837 10.16 117.997 10.16C118.263 10.16 118.53 10.16 118.797 10.16C119.063 10.16 119.33 10.1467 119.597 10.12C119.917 10.0667 120.223 10 120.517 9.92C120.837 9.84 121.157 9.77333 121.477 9.72C122.037 9.64 122.61 9.58667 123.197 9.56C123.783 9.53333 124.37 9.56 124.957 9.64C124.957 9.64 124.97 9.64 124.997 9.64C124.997 9.66666 124.997 9.68 124.997 9.68C125.61 9.86667 126.263 10.2133 126.957 10.72C127.677 11.2 128.357 11.7333 128.997 12.32C129.637 12.88 130.17 13.4133 130.597 13.92C130.597 13.92 130.61 13.92 130.637 13.92C130.637 13.9467 130.637 13.96 130.637 13.96C130.983 14.6267 131.223 15.32 131.357 16.04C131.49 16.76 131.663 17.4667 131.877 18.16C131.957 18.4533 132.023 18.7467 132.077 19.04C132.157 19.3067 132.21 19.5733 132.237 19.84C132.29 20.24 132.317 20.64 132.317 21.04C132.343 21.44 132.357 21.84 132.357 22.24C132.357 22.3733 132.357 22.48 132.357 22.56C132.357 22.6133 132.357 22.7067 132.357 22.84C132.357 23.2133 132.343 23.6 132.317 24C132.317 24.3733 132.263 24.76 132.157 25.16C132.077 25.4267 131.97 25.6933 131.837 25.96C131.703 26.2 131.557 26.44 131.397 26.68C131.103 27.2133 130.757 27.7067 130.357 28.16C129.957 28.6133 129.503 29 128.997 29.32C128.757 29.5067 128.49 29.6667 128.197 29.8C127.93 29.9333 127.663 30.08 127.397 30.24C126.997 30.48 126.583 30.7333 126.157 31C125.757 31.24 125.317 31.44 124.837 31.6C124.437 31.7333 124.023 31.8 123.597 31.8C123.197 31.8267 122.797 31.8667 122.397 31.92C122.29 31.9467 122.183 31.96 122.077 31.96C121.997 31.9867 121.917 32 121.837 32C121.65 32.0533 121.463 32.0933 121.277 32.12C121.09 32.1467 120.903 32.16 120.717 32.16C120.583 32.16 120.45 32.1467 120.317 32.12C120.183 32.0933 120.037 32.0667 119.877 32.04L119.357 31.92ZM119.397 31.44L119.957 31.56C120.09 31.5867 120.223 31.6133 120.357 31.64C120.49 31.6667 120.61 31.68 120.717 31.68C120.903 31.68 121.077 31.6667 121.237 31.64C121.423 31.6133 121.61 31.5867 121.797 31.56C121.877 31.5333 121.957 31.5067 122.037 31.48C122.143 31.48 122.237 31.4667 122.317 31.44C122.717 31.3867 123.117 31.3467 123.517 31.32C123.917 31.32 124.303 31.2533 124.677 31.12C125.13 30.9867 125.557 30.8 125.957 30.56C126.357 30.2933 126.757 30.0533 127.157 29.84C127.423 29.68 127.69 29.5333 127.957 29.4C128.223 29.2667 128.49 29.1067 128.757 28.92C129.21 28.6267 129.623 28.2667 129.997 27.84C130.37 27.3867 130.703 26.92 130.997 26.44C131.13 26.2267 131.263 26 131.397 25.76C131.53 25.52 131.623 25.2667 131.677 25C131.783 24.6533 131.837 24.3067 131.837 23.96C131.863 23.5867 131.877 23.2267 131.877 22.88C131.877 22.72 131.877 22.6133 131.877 22.56C131.877 22.48 131.877 22.3733 131.877 22.24C131.877 21.8667 131.877 21.48 131.877 21.08C131.877 20.68 131.85 20.2933 131.797 19.92C131.743 19.6533 131.677 19.3867 131.597 19.12C131.543 18.8533 131.477 18.5867 131.397 18.32C131.21 17.6267 131.05 16.9333 130.917 16.24C130.783 15.52 130.557 14.84 130.237 14.2C129.837 13.7467 129.317 13.24 128.677 12.68C128.063 12.12 127.423 11.6 126.757 11.12C126.09 10.64 125.463 10.3067 124.877 10.12C124.317 10.04 123.757 10.0133 123.197 10.04C122.637 10.0667 122.09 10.12 121.557 10.2C121.237 10.2533 120.917 10.32 120.597 10.4C120.277 10.48 119.957 10.5467 119.637 10.6C119.37 10.6267 119.103 10.64 118.837 10.64C118.57 10.64 118.303 10.64 118.037 10.64C117.85 10.64 117.677 10.64 117.517 10.64C117.357 10.64 117.197 10.64 117.037 10.64C116.637 10.6667 116.25 10.72 115.877 10.8C115.503 10.88 115.13 10.96 114.757 11.04C114.383 11.0933 114.01 11.1467 113.637 11.2C113.29 11.2267 112.957 11.32 112.637 11.48C112.157 11.72 111.717 12.0533 111.317 12.48C110.943 12.88 110.597 13.2933 110.277 13.72C109.957 14.1733 109.703 14.64 109.517 15.12C109.41 15.44 109.33 15.76 109.277 16.08C109.223 16.4 109.17 16.7067 109.117 17C109.063 17.32 108.997 17.6267 108.917 17.92C108.863 18.2133 108.823 18.52 108.797 18.84C108.743 19.1867 108.703 19.5467 108.677 19.92C108.677 20.2667 108.677 20.6133 108.677 20.96C108.677 21.0133 108.677 21.0933 108.677 21.2C108.677 21.52 108.677 21.8267 108.677 22.12C108.677 22.4133 108.703 22.7067 108.757 23C108.81 23.4533 108.917 23.8933 109.077 24.32C109.263 24.7467 109.437 25.1733 109.597 25.6C109.757 26 109.903 26.4 110.037 26.8C110.197 27.1733 110.41 27.52 110.677 27.84C110.97 28.16 111.29 28.4267 111.637 28.64C111.983 28.8533 112.33 29.08 112.677 29.32C112.997 29.5333 113.303 29.7467 113.597 29.96C113.89 30.1733 114.21 30.3467 114.557 30.48C114.823 30.56 115.09 30.6133 115.357 30.64C115.623 30.6667 115.877 30.7067 116.117 30.76C116.543 30.8667 116.957 30.9867 117.357 31.12C117.757 31.28 118.17 31.3867 118.597 31.44C118.677 31.44 118.757 31.44 118.837 31.44C118.943 31.44 119.037 31.44 119.117 31.44C119.223 31.44 119.317 31.44 119.397 31.44ZM121.717 25.04C121.717 25.04 121.703 25.04 121.677 25.04C121.677 25.0667 121.677 25.08 121.677 25.08L120.237 25.52C120.237 25.52 120.223 25.52 120.197 25.52C120.197 25.5467 120.183 25.56 120.157 25.56C119.997 25.5067 119.823 25.48 119.637 25.48C119.45 25.48 119.263 25.44 119.077 25.36C118.73 25.1733 118.463 24.9067 118.277 24.56C118.117 24.2133 117.983 23.8533 117.877 23.48C117.637 22.7867 117.57 21.9733 117.677 21.04C117.81 20.1067 117.957 19.2933 118.117 18.6C118.223 18.0933 118.317 17.5867 118.397 17.08C118.503 16.5467 118.81 16.1333 119.317 15.84C119.477 15.7333 119.65 15.6667 119.837 15.64C120.023 15.6133 120.223 15.5867 120.437 15.56C120.597 15.5333 120.77 15.52 120.957 15.52C121.143 15.52 121.33 15.5467 121.517 15.6C122.023 15.7867 122.357 16.1333 122.517 16.64C122.703 17.1467 122.85 17.64 122.957 18.12C123.117 18.7867 123.197 19.48 123.197 20.2C123.197 20.92 123.157 21.6133 123.077 22.28C123.05 22.6 122.997 22.96 122.917 23.36C122.863 23.76 122.743 24.0933 122.557 24.36C122.45 24.52 122.317 24.6533 122.157 24.76C121.997 24.84 121.85 24.9333 121.717 25.04ZM121.477 24.64C121.583 24.5333 121.703 24.44 121.837 24.36C121.97 24.28 122.077 24.1867 122.157 24.08C122.317 23.8667 122.423 23.5733 122.477 23.2C122.53 22.8267 122.57 22.5067 122.597 22.24C122.677 21.6 122.717 20.9333 122.717 20.24C122.717 19.52 122.637 18.84 122.477 18.2C122.397 17.8267 122.29 17.4133 122.157 16.96C122.023 16.5067 121.743 16.2133 121.317 16.08C121.183 16.0267 121.037 16 120.877 16C120.743 16 120.61 16.0133 120.477 16.04C120.317 16.04 120.157 16.0533 119.997 16.08C119.837 16.1067 119.69 16.1733 119.557 16.28C119.157 16.4933 118.917 16.84 118.837 17.32C118.757 17.8 118.677 18.2533 118.597 18.68C118.437 19.3467 118.29 20.1333 118.157 21.04C118.05 21.92 118.117 22.68 118.357 23.32C118.357 23.32 118.357 23.3333 118.357 23.36C118.437 23.6533 118.543 23.9467 118.677 24.24C118.81 24.5333 119.023 24.76 119.317 24.92C119.45 24.9733 119.583 25.0133 119.717 25.04C119.877 25.04 120.023 25.04 120.157 25.04L121.477 24.64ZM135.221 7.28C135.221 7.28 135.207 7.26666 135.181 7.24C135.154 7.18667 135.141 7.16 135.141 7.16C135.114 7.02667 135.074 6.90667 135.021 6.8C134.994 6.66667 134.967 6.52 134.941 6.36C134.941 6.25333 134.954 6.10667 134.981 5.92C134.981 5.81333 134.981 5.73333 134.981 5.68C135.007 5.62667 135.021 5.53333 135.021 5.4C135.021 5.18667 135.021 4.98667 135.021 4.8C135.047 4.58666 135.061 4.38667 135.061 4.2C135.034 4.01333 134.994 3.84 134.941 3.68C134.914 3.49333 134.874 3.30666 134.821 3.12C134.821 3.09333 134.807 3.04 134.781 2.96C134.727 2.69333 134.687 2.44 134.661 2.2C134.634 1.93333 134.741 1.70667 134.981 1.52C135.114 1.41333 135.261 1.34666 135.421 1.32C135.581 1.29333 135.741 1.28 135.901 1.28C136.087 1.25333 136.234 1.25333 136.341 1.28C136.474 1.30667 136.594 1.33333 136.701 1.36C136.807 1.41333 136.914 1.45333 137.021 1.48C137.154 1.48 137.314 1.46667 137.501 1.44C137.501 1.44 137.514 1.42667 137.541 1.4C137.567 1.4 137.581 1.4 137.581 1.4C137.874 1.4 138.167 1.37333 138.461 1.32C138.781 1.26667 139.087 1.21333 139.381 1.16C139.647 1.13333 139.914 1.12 140.181 1.12C140.447 1.09333 140.714 1.05333 140.981 0.999998C141.194 0.973331 141.407 0.946665 141.621 0.919999C141.834 0.866666 142.047 0.84 142.261 0.84C142.581 0.813332 142.901 0.813332 143.221 0.84C143.567 0.84 143.874 0.946666 144.141 1.16C144.407 1.4 144.541 1.66667 144.541 1.96C144.567 2.22667 144.567 2.52 144.541 2.84C144.514 2.86667 144.501 2.89333 144.501 2.92C144.474 3.13333 144.447 3.34667 144.421 3.56C144.394 3.74667 144.381 3.96 144.381 4.2C144.381 4.30667 144.381 4.42667 144.381 4.56C144.381 4.66667 144.381 4.77333 144.381 4.88C144.407 5.09333 144.421 5.30667 144.421 5.52C144.421 5.73333 144.407 5.94667 144.381 6.16C144.354 6.45333 144.301 6.74667 144.221 7.04C144.167 7.33333 144.034 7.6 143.821 7.84C143.501 8.16 143.101 8.36 142.621 8.44C142.141 8.49333 141.687 8.52 141.261 8.52C141.101 8.52 140.927 8.50667 140.741 8.48C140.581 8.45333 140.421 8.44 140.261 8.44C140.181 8.41333 140.087 8.4 139.981 8.4C139.901 8.37333 139.821 8.36 139.741 8.36C139.127 8.30667 138.514 8.28 137.901 8.28C137.314 8.28 136.714 8.29333 136.101 8.32C136.074 8.32 136.034 8.30667 135.981 8.28C135.901 8.25333 135.847 8.22667 135.821 8.2L135.221 7.28ZM135.621 7L136.181 7.84C136.794 7.81333 137.394 7.8 137.981 7.8C138.594 7.8 139.194 7.82667 139.781 7.88C139.861 7.88 139.941 7.89333 140.021 7.92C140.127 7.92 140.221 7.93333 140.301 7.96C140.461 7.96 140.621 7.97333 140.781 8C140.941 8.02667 141.114 8.04 141.301 8.04C141.621 8.04 141.994 8.01333 142.421 7.96C142.874 7.90667 143.221 7.74667 143.461 7.48C143.647 7.29333 143.754 7.08 143.781 6.84C143.834 6.6 143.874 6.34667 143.901 6.08C143.927 5.89333 143.941 5.70666 143.941 5.52C143.941 5.30667 143.927 5.09333 143.901 4.88C143.901 4.77333 143.901 4.66667 143.901 4.56C143.901 4.42667 143.901 4.29333 143.901 4.16C143.901 3.94667 143.914 3.73333 143.941 3.52C143.967 3.30666 143.994 3.08 144.021 2.84C144.047 2.81333 144.061 2.76 144.061 2.68C144.087 2.46667 144.101 2.26667 144.101 2.08C144.101 1.86667 144.007 1.68 143.821 1.52C143.607 1.36 143.381 1.28 143.141 1.28C142.901 1.25333 142.661 1.25333 142.421 1.28C142.341 1.28 142.301 1.29333 142.301 1.32C142.087 1.32 141.874 1.34667 141.661 1.4C141.447 1.42667 141.234 1.45333 141.021 1.48C140.754 1.50666 140.487 1.53333 140.221 1.56C139.954 1.58667 139.687 1.61333 139.421 1.64C139.127 1.66667 138.821 1.72 138.501 1.8C138.207 1.85333 137.914 1.88 137.621 1.88C137.407 1.93333 137.234 1.96 137.101 1.96C136.967 1.93333 136.834 1.89333 136.701 1.84C136.594 1.81333 136.487 1.78667 136.381 1.76C136.274 1.73333 136.127 1.73333 135.941 1.76C135.914 1.76 135.874 1.76 135.821 1.76C135.741 1.76 135.647 1.77333 135.541 1.8C135.434 1.8 135.354 1.82667 135.301 1.88C135.167 1.98667 135.114 2.13333 135.141 2.32C135.167 2.48 135.207 2.64 135.261 2.8C135.287 2.90667 135.301 2.97333 135.301 3C135.354 3.18667 135.394 3.37333 135.421 3.56C135.474 3.74667 135.514 3.94667 135.541 4.16C135.541 4.37333 135.527 4.58666 135.501 4.8C135.501 5.01333 135.501 5.22667 135.501 5.44C135.474 5.54666 135.461 5.64 135.461 5.72C135.461 5.74667 135.461 5.81333 135.461 5.92C135.434 6.10667 135.421 6.24 135.421 6.32C135.421 6.45333 135.447 6.57333 135.501 6.68C135.554 6.78667 135.594 6.89333 135.621 7ZM135.101 31.32C135.074 31.32 135.047 31.2933 135.021 31.24C134.967 31.1867 134.941 31.16 134.941 31.16C134.887 31 134.821 30.8533 134.741 30.72C134.687 30.56 134.647 30.4 134.621 30.24C134.594 30.1067 134.581 29.9867 134.581 29.88C134.581 29.7733 134.581 29.6667 134.581 29.56C134.581 29.4267 134.581 29.3333 134.581 29.28C134.581 28.9333 134.581 28.6 134.581 28.28C134.581 27.96 134.581 27.64 134.581 27.32C134.581 26.8133 134.594 26.3067 134.621 25.8C134.647 25.2933 134.661 24.7867 134.661 24.28C134.661 24.12 134.647 23.96 134.621 23.8C134.621 23.64 134.621 23.48 134.621 23.32C134.621 23 134.621 22.6933 134.621 22.4C134.621 22.08 134.634 21.76 134.661 21.44C134.714 21.12 134.794 20.8 134.901 20.48C135.007 20.1333 135.087 19.7867 135.141 19.44C135.221 18.9067 135.247 18.3733 135.221 17.84C135.194 17.3067 135.141 16.7867 135.061 16.28C135.034 16.0133 134.994 15.76 134.941 15.52C134.887 15.2533 134.847 15 134.821 14.76C134.767 14.3333 134.741 13.92 134.741 13.52C134.741 13.0933 134.741 12.6533 134.741 12.2C134.741 12.1467 134.754 12.0533 134.781 11.92C134.781 11.6267 134.794 11.3333 134.821 11.04C134.847 10.7467 134.981 10.48 135.221 10.24C135.434 10 135.674 9.86667 135.941 9.84C136.234 9.78667 136.527 9.77333 136.821 9.8C136.901 9.8 136.954 9.8 136.981 9.8C137.327 9.8 137.661 9.81333 137.981 9.84C138.327 9.84 138.661 9.85333 138.981 9.88C139.461 9.90667 139.941 9.93333 140.421 9.96C140.901 9.98667 141.381 9.98667 141.861 9.96C141.914 9.96 142.021 9.94667 142.181 9.92C142.447 9.92 142.714 9.93333 142.981 9.96C143.247 9.96 143.487 10.0533 143.701 10.24C143.941 10.4533 144.074 10.6933 144.101 10.96C144.154 11.2 144.194 11.4667 144.221 11.76C144.221 11.84 144.221 11.9067 144.221 11.96C144.247 12.36 144.274 12.76 144.301 13.16C144.327 13.56 144.381 13.96 144.461 14.36C144.621 15.1333 144.727 15.9467 144.781 16.8C144.861 17.6267 144.874 18.4267 144.821 19.2C144.767 19.7333 144.674 20.2533 144.541 20.76C144.434 21.24 144.354 21.7333 144.301 22.24C144.274 22.6933 144.287 23.1467 144.341 23.6C144.394 24.0533 144.474 24.4933 144.581 24.92C144.634 25.1867 144.687 25.44 144.741 25.68C144.821 25.8933 144.874 26.12 144.901 26.36C144.901 26.6 144.887 26.8267 144.861 27.04C144.834 27.2267 144.807 27.4267 144.781 27.64C144.727 27.8 144.687 27.96 144.661 28.12C144.661 28.2533 144.647 28.3867 144.621 28.52C144.621 28.6267 144.621 28.7733 144.621 28.96C144.647 29.1733 144.647 29.3867 144.621 29.6C144.594 29.7867 144.501 29.9733 144.341 30.16C144.207 30.2933 144.061 30.3867 143.901 30.44C143.767 30.4667 143.607 30.4933 143.421 30.52C143.341 30.5467 143.247 30.56 143.141 30.56C143.034 30.5333 142.941 30.52 142.861 30.52C142.701 30.52 142.581 30.52 142.501 30.52C142.367 30.52 142.221 30.52 142.061 30.52C141.927 30.52 141.781 30.52 141.621 30.52C141.087 30.5467 140.554 30.6267 140.021 30.76C139.514 30.8667 139.007 30.9867 138.501 31.12C138.047 31.2267 137.607 31.32 137.181 31.4C136.754 31.5067 136.327 31.6133 135.901 31.72C135.874 31.72 135.834 31.7067 135.781 31.68C135.701 31.68 135.661 31.68 135.661 31.68L135.101 31.32ZM135.381 30.92L135.861 31.24C136.261 31.1333 136.674 31.04 137.101 30.96C137.527 30.8533 137.954 30.7467 138.381 30.64C138.914 30.5067 139.447 30.3867 139.981 30.28C140.514 30.1467 141.061 30.0667 141.621 30.04C141.781 30.04 141.927 30.04 142.061 30.04C142.221 30.04 142.381 30.04 142.541 30.04C142.594 30.04 142.687 30.04 142.821 30.04C142.927 30.04 143.021 30.0533 143.101 30.08C143.181 30.08 143.274 30.0667 143.381 30.04C143.461 30.04 143.554 30.0267 143.661 30C143.794 29.9733 143.901 29.92 143.981 29.84C144.087 29.7067 144.141 29.56 144.141 29.4C144.167 29.24 144.167 29.0667 144.141 28.88C144.141 28.6933 144.141 28.56 144.141 28.48C144.167 28.3467 144.194 28.2133 144.221 28.08C144.247 27.92 144.274 27.7733 144.301 27.64C144.327 27.4267 144.354 27.2267 144.381 27.04C144.407 26.8267 144.421 26.6133 144.421 26.4C144.394 26.16 144.341 25.9333 144.261 25.72C144.207 25.5067 144.154 25.28 144.101 25.04C143.994 24.5867 143.914 24.12 143.861 23.64C143.807 23.16 143.794 22.68 143.821 22.2C143.874 21.6933 143.954 21.2 144.061 20.72C144.194 20.2133 144.287 19.7067 144.341 19.2C144.394 18.4267 144.381 17.6267 144.301 16.8C144.247 15.9733 144.141 15.2 143.981 14.48C143.927 14.0533 143.874 13.64 143.821 13.24C143.794 12.8133 143.767 12.4 143.741 12C143.741 11.9467 143.741 11.8667 143.741 11.76C143.741 11.5467 143.714 11.3467 143.661 11.16C143.634 10.9467 143.541 10.7733 143.381 10.64C143.221 10.48 143.034 10.4 142.821 10.4C142.607 10.4 142.394 10.4 142.181 10.4C142.047 10.4267 141.941 10.44 141.861 10.44C141.381 10.4667 140.901 10.4667 140.421 10.44C139.941 10.4133 139.461 10.3867 138.981 10.36C138.661 10.3333 138.327 10.32 137.981 10.32C137.661 10.2933 137.327 10.28 136.981 10.28C136.927 10.28 136.847 10.2667 136.741 10.24C136.527 10.24 136.314 10.2533 136.101 10.28C135.887 10.3067 135.701 10.4 135.541 10.56C135.381 10.7467 135.287 10.96 135.261 11.2C135.234 11.44 135.221 11.68 135.221 11.92C135.221 12.0533 135.221 12.1467 135.221 12.2C135.221 12.2267 135.221 12.2533 135.221 12.28C135.221 12.68 135.221 13.08 135.221 13.48C135.221 13.88 135.247 14.28 135.301 14.68C135.327 14.9467 135.367 15.2 135.421 15.44C135.474 15.68 135.514 15.9333 135.541 16.2C135.621 16.7333 135.674 17.28 135.701 17.84C135.727 18.4 135.701 18.96 135.621 19.52C135.567 19.8667 135.487 20.2 135.381 20.52C135.274 20.84 135.194 21.1733 135.141 21.52C135.087 21.84 135.061 22.1467 135.061 22.44C135.087 22.7333 135.101 23.04 135.101 23.36C135.101 23.4933 135.101 23.64 135.101 23.8C135.127 23.96 135.141 24.12 135.141 24.28C135.141 24.7867 135.127 25.2933 135.101 25.8C135.074 26.3067 135.061 26.8133 135.061 27.32C135.061 27.64 135.061 27.96 135.061 28.28C135.061 28.6 135.061 28.92 135.061 29.24C135.061 29.32 135.061 29.4133 135.061 29.52C135.061 29.6267 135.061 29.7333 135.061 29.84C135.061 29.9467 135.061 30.04 135.061 30.12C135.114 30.28 135.167 30.4267 135.221 30.56C135.274 30.6667 135.327 30.7867 135.381 30.92ZM155.19 31.64C155.164 31.6667 155.15 31.68 155.15 31.68C155.097 31.68 155.03 31.6933 154.95 31.72C154.63 31.8 154.324 31.8667 154.03 31.92C153.737 31.9733 153.43 31.9867 153.11 31.96C152.79 31.9333 152.497 31.8667 152.23 31.76C151.964 31.6533 151.697 31.52 151.43 31.36C151.057 31.1733 150.697 30.9467 150.35 30.68C150.03 30.4133 149.737 30.1067 149.47 29.76C149.177 29.4133 148.924 29.04 148.71 28.64C148.497 28.2133 148.297 27.7867 148.11 27.36C147.87 26.8267 147.657 26.28 147.47 25.72C147.284 25.16 147.177 24.5867 147.15 24C147.097 23.5467 147.07 23.1067 147.07 22.68C147.097 22.2533 147.124 21.8133 147.15 21.36C147.177 21.0933 147.19 20.8267 147.19 20.56C147.217 20.2933 147.23 20.04 147.23 19.8C147.23 19.6133 147.23 19.4267 147.23 19.24C147.23 19.0533 147.23 18.8667 147.23 18.68C147.204 18.3333 147.19 18 147.19 17.68C147.19 17.3333 147.204 17 147.23 16.68C147.257 16.28 147.31 15.88 147.39 15.48C147.47 15.08 147.604 14.6933 147.79 14.32C148.084 13.84 148.444 13.4 148.87 13C149.297 12.5733 149.724 12.1867 150.15 11.84C150.417 11.6533 150.67 11.48 150.91 11.32C151.177 11.1333 151.444 10.96 151.71 10.8C152.084 10.5333 152.47 10.2933 152.87 10.08C153.297 9.84 153.724 9.65333 154.15 9.52C154.737 9.36 155.324 9.28 155.91 9.28C156.524 9.28 157.124 9.34666 157.71 9.48C158.297 9.58666 158.817 9.8 159.27 10.12C159.75 10.44 160.204 10.7867 160.63 11.16C160.71 11.2133 160.777 11.28 160.83 11.36C160.884 11.44 160.924 11.5067 160.95 11.56C160.95 11.5067 160.95 11.4533 160.95 11.4C160.924 11.24 160.924 11.1333 160.95 11.08C160.95 10.92 160.964 10.7733 160.99 10.64C161.017 10.5067 161.03 10.36 161.03 10.2C161.057 9.90667 161.057 9.61333 161.03 9.32C161.004 9 160.977 8.69333 160.95 8.4C160.95 8.26667 160.937 8.13333 160.91 8C160.91 7.84 160.897 7.68 160.87 7.52C160.87 7.17333 160.87 6.82667 160.87 6.48C160.87 6.13333 160.857 5.78666 160.83 5.44C160.804 5.17333 160.777 4.92 160.75 4.68C160.75 4.44 160.75 4.2 160.75 3.96C160.75 3.96 160.75 3.94666 160.75 3.92C160.75 3.89333 160.75 3.88 160.75 3.88C160.83 3.42666 160.977 3.10666 161.19 2.92C161.404 2.73333 161.724 2.58666 162.15 2.48C162.257 2.48 162.364 2.48 162.47 2.48C162.577 2.45333 162.684 2.44 162.79 2.44C162.924 2.44 163.017 2.44 163.07 2.44C163.23 2.44 163.377 2.44 163.51 2.44C163.67 2.41333 163.817 2.4 163.95 2.4C164.697 2.37333 165.457 2.34667 166.23 2.32C167.004 2.29333 167.764 2.21333 168.51 2.08C168.617 2.05333 168.737 2.04 168.87 2.04C169.004 2.01333 169.137 1.98667 169.27 1.96C169.324 1.93333 169.417 1.92 169.55 1.92C169.817 1.86667 170.084 1.84 170.35 1.84C170.644 1.81333 170.91 1.88 171.15 2.04C171.284 2.14667 171.39 2.28 171.47 2.44C171.55 2.57333 171.604 2.72 171.63 2.88C171.657 2.98666 171.67 3.09333 171.67 3.2C171.67 3.30666 171.657 3.41333 171.63 3.52C171.63 3.6 171.63 3.65333 171.63 3.68C171.604 4 171.55 4.30667 171.47 4.6C171.417 4.86667 171.35 5.14666 171.27 5.44C171.164 5.84 171.03 6.25333 170.87 6.68C170.737 7.08 170.644 7.49333 170.59 7.92C170.537 8.26667 170.51 8.61333 170.51 8.96C170.51 9.30667 170.51 9.65333 170.51 10C170.51 10.2133 170.51 10.36 170.51 10.44C170.51 10.4667 170.51 10.48 170.51 10.48C170.51 10.48 170.51 10.5067 170.51 10.56C170.537 11.3067 170.55 12.04 170.55 12.76C170.577 13.48 170.577 14.2133 170.55 14.96C170.55 15.2267 170.55 15.5067 170.55 15.8C170.55 16.0667 170.564 16.3467 170.59 16.64C170.59 16.8267 170.59 17.0133 170.59 17.2C170.59 17.36 170.59 17.5333 170.59 17.72C170.59 17.8533 170.59 18 170.59 18.16C170.59 18.2933 170.59 18.44 170.59 18.6C170.59 18.8667 170.59 19.1333 170.59 19.4C170.59 19.64 170.604 19.8933 170.63 20.16C170.657 20.64 170.71 21.12 170.79 21.6C170.897 22.0533 170.977 22.5333 171.03 23.04C171.084 23.6 171.124 24.16 171.15 24.72C171.177 25.28 171.23 25.8533 171.31 26.44C171.364 26.8667 171.404 27.2933 171.43 27.72C171.484 28.1467 171.537 28.5733 171.59 29C171.59 29.0533 171.59 29.1467 171.59 29.28C171.644 29.5733 171.657 29.8667 171.63 30.16C171.63 30.4267 171.55 30.6933 171.39 30.96C171.15 31.3067 170.804 31.5067 170.35 31.56C169.924 31.64 169.524 31.6933 169.15 31.72C168.777 31.7467 168.404 31.7467 168.03 31.72C167.657 31.6933 167.284 31.6667 166.91 31.64C166.697 31.6133 166.47 31.5867 166.23 31.56C165.99 31.56 165.75 31.5467 165.51 31.52C165.324 31.52 165.124 31.52 164.91 31.52C164.724 31.5467 164.537 31.5733 164.35 31.6C164.27 31.6 164.19 31.6 164.11 31.6C164.03 31.6267 163.937 31.64 163.83 31.64C163.777 31.64 163.684 31.6533 163.55 31.68C163.417 31.68 163.284 31.68 163.15 31.68C163.044 31.7067 162.924 31.7067 162.79 31.68C162.257 31.6 161.87 31.4533 161.63 31.24C161.417 31.0533 161.19 30.7333 160.95 30.28C160.924 30.2 160.897 30.12 160.87 30.04C160.844 29.9333 160.83 29.84 160.83 29.76C160.724 29.92 160.644 30.0133 160.59 30.04C160.377 30.2267 160.15 30.4 159.91 30.56C159.697 30.72 159.47 30.8667 159.23 31C158.617 31.2667 157.964 31.4267 157.27 31.48C156.577 31.56 155.884 31.6133 155.19 31.64ZM155.07 31.16C155.07 31.16 155.084 31.16 155.11 31.16C155.137 31.16 155.15 31.16 155.15 31.16C155.79 31.1333 156.444 31.0933 157.11 31.04C157.804 30.9867 158.444 30.8267 159.03 30.56C159.244 30.4533 159.457 30.32 159.67 30.16C159.884 30 160.084 29.84 160.27 29.68C160.404 29.5733 160.51 29.4533 160.59 29.32C160.697 29.16 160.83 29.0533 160.99 29C161.15 28.9467 161.23 28.9733 161.23 29.08C161.257 29.16 161.27 29.2533 161.27 29.36C161.27 29.4667 161.27 29.5333 161.27 29.56C161.297 29.64 161.31 29.7333 161.31 29.84C161.337 29.92 161.364 29.9867 161.39 30.04C161.577 30.44 161.75 30.72 161.91 30.88C162.097 31.04 162.417 31.1467 162.87 31.2C162.977 31.2267 163.084 31.2267 163.19 31.2C163.297 31.2 163.404 31.2 163.51 31.2C163.644 31.1733 163.75 31.16 163.83 31.16C163.91 31.16 163.99 31.1467 164.07 31.12C164.15 31.12 164.23 31.12 164.31 31.12C164.524 31.0933 164.724 31.0667 164.91 31.04C165.124 31.04 165.337 31.04 165.55 31.04C165.764 31.0667 165.99 31.08 166.23 31.08C166.47 31.1067 166.697 31.1333 166.91 31.16C167.284 31.1867 167.657 31.2133 168.03 31.24C168.404 31.2667 168.764 31.2667 169.11 31.24C169.404 31.24 169.737 31.2133 170.11 31.16C170.51 31.1067 170.804 30.96 170.99 30.72C171.124 30.5067 171.19 30.28 171.19 30.04C171.19 29.8 171.177 29.56 171.15 29.32C171.124 29.1867 171.11 29.0933 171.11 29.04C171.057 28.6133 171.004 28.1867 170.95 27.76C170.924 27.3333 170.884 26.9067 170.83 26.48C170.75 25.92 170.697 25.36 170.67 24.8C170.644 24.2133 170.604 23.64 170.55 23.08C170.497 22.5733 170.417 22.0933 170.31 21.64C170.23 21.16 170.177 20.68 170.15 20.2C170.124 19.9333 170.11 19.6667 170.11 19.4C170.11 19.1333 170.11 18.8667 170.11 18.6C170.11 18.4667 170.11 18.3333 170.11 18.2C170.11 18.04 170.11 17.88 170.11 17.72C170.11 17.5333 170.11 17.36 170.11 17.2C170.11 17.0133 170.11 16.8267 170.11 16.64C170.084 16.3467 170.07 16.0667 170.07 15.8C170.07 15.5067 170.07 15.2267 170.07 14.96C170.097 14.2133 170.097 13.48 170.07 12.76C170.07 12.0133 170.057 11.2533 170.03 10.48C170.03 10.3733 170.03 10.2267 170.03 10.04C170.03 9.66666 170.03 9.29333 170.03 8.92C170.03 8.54666 170.057 8.18666 170.11 7.84C170.19 7.38667 170.297 6.96 170.43 6.56C170.564 6.13333 170.697 5.72 170.83 5.32C170.91 5.02666 170.977 4.74666 171.03 4.48C171.084 4.21333 171.124 3.93333 171.15 3.64C171.15 3.61333 171.15 3.56 171.15 3.48C171.177 3.4 171.19 3.32 171.19 3.24C171.19 3.16 171.177 3.06667 171.15 2.96C171.124 2.88 171.097 2.78667 171.07 2.68C171.044 2.57333 170.99 2.49333 170.91 2.44C170.724 2.30666 170.51 2.25333 170.27 2.28C170.057 2.30667 169.844 2.33333 169.63 2.36C169.497 2.38667 169.404 2.41333 169.35 2.44C169.217 2.44 169.084 2.45333 168.95 2.48C168.817 2.50667 168.684 2.53333 168.55 2.56C167.804 2.69333 167.044 2.77333 166.27 2.8C165.497 2.82666 164.737 2.85333 163.99 2.88C163.83 2.88 163.67 2.89333 163.51 2.92C163.377 2.92 163.244 2.92 163.11 2.92C163.03 2.92 162.924 2.92 162.79 2.92C162.71 2.92 162.617 2.92 162.51 2.92C162.43 2.92 162.35 2.93333 162.27 2.96C161.924 3.04 161.684 3.14667 161.55 3.28C161.417 3.38667 161.31 3.61333 161.23 3.96C161.23 4.2 161.23 4.44 161.23 4.68C161.257 4.92 161.284 5.16 161.31 5.4C161.337 5.74667 161.35 6.10667 161.35 6.48C161.35 6.82667 161.35 7.17333 161.35 7.52C161.377 7.65333 161.39 7.8 161.39 7.96C161.417 8.09333 161.43 8.24 161.43 8.4C161.457 8.69333 161.484 9 161.51 9.32C161.537 9.61333 161.537 9.92 161.51 10.24C161.51 10.4 161.497 10.56 161.47 10.72C161.444 10.8533 161.417 10.9867 161.39 11.12C161.39 11.2 161.404 11.3067 161.43 11.44C161.43 11.5733 161.417 11.7067 161.39 11.84C161.39 11.9467 161.31 12.0267 161.15 12.08C161.017 12.1333 160.897 12.12 160.79 12.04C160.71 11.96 160.63 11.8667 160.55 11.76C160.444 11.6533 160.377 11.5733 160.35 11.52C159.924 11.1733 159.497 10.8533 159.07 10.56C158.644 10.2667 158.164 10.0533 157.63 9.92C157.07 9.81333 156.51 9.76 155.95 9.76C155.39 9.76 154.844 9.84 154.31 10C153.884 10.1333 153.47 10.3067 153.07 10.52C152.697 10.7333 152.324 10.96 151.95 11.2C151.684 11.36 151.43 11.52 151.19 11.68C150.95 11.84 150.71 12.0133 150.47 12.2C150.044 12.5467 149.63 12.92 149.23 13.32C148.83 13.6933 148.497 14.1067 148.23 14.56C148.044 14.88 147.91 15.2267 147.83 15.6C147.777 15.9733 147.737 16.3467 147.71 16.72C147.684 17.04 147.67 17.3733 147.67 17.72C147.67 18.04 147.684 18.36 147.71 18.68C147.71 18.8667 147.71 19.0533 147.71 19.24C147.71 19.4267 147.71 19.6133 147.71 19.8C147.71 20.04 147.697 20.2933 147.67 20.56C147.67 20.8267 147.657 21.0933 147.63 21.36C147.604 21.7867 147.577 22.2267 147.55 22.68C147.55 23.1067 147.577 23.5333 147.63 23.96C147.657 24.52 147.764 25.0667 147.95 25.6C148.137 26.1333 148.337 26.6533 148.55 27.16C148.737 27.56 148.924 27.96 149.11 28.36C149.324 28.76 149.564 29.1333 149.83 29.48C150.07 29.7733 150.337 30.0533 150.63 30.32C150.95 30.56 151.284 30.7733 151.63 30.96C151.87 31.0933 152.11 31.2 152.35 31.28C152.617 31.3867 152.884 31.4533 153.15 31.48C153.444 31.5067 153.724 31.4933 153.99 31.44C154.257 31.3867 154.524 31.3333 154.79 31.28C154.87 31.2533 154.964 31.2133 155.07 31.16ZM160.03 24.64C160.004 24.6667 159.964 24.68 159.91 24.68C159.857 24.68 159.83 24.6667 159.83 24.64L159.43 24.2C159.377 24.2 159.297 24.2 159.19 24.2C159.084 24.2267 158.977 24.24 158.87 24.24C158.79 24.2133 158.697 24.1867 158.59 24.16C158.244 24.0533 157.977 23.8933 157.79 23.68C157.63 23.44 157.497 23.16 157.39 22.84C157.284 22.5467 157.204 22.2533 157.15 21.96C157.124 21.64 157.097 21.3467 157.07 21.08C157.044 20.7867 157.017 20.5067 156.99 20.24C156.99 19.9467 156.99 19.6533 156.99 19.36C157.017 18.9067 157.097 18.4667 157.23 18.04C157.39 17.5867 157.71 17.2533 158.19 17.04C158.724 16.8267 159.27 16.8267 159.83 17.04C160.417 17.2267 160.844 17.5867 161.11 18.12C161.217 18.3867 161.284 18.6933 161.31 19.04C161.337 19.3867 161.364 19.72 161.39 20.04C161.39 20.1733 161.39 20.2667 161.39 20.32C161.39 20.3733 161.39 20.4 161.39 20.4C161.39 20.88 161.377 21.3733 161.35 21.88C161.35 22.36 161.27 22.8267 161.11 23.28C161.084 23.44 161.03 23.6 160.95 23.76C160.897 23.8933 160.817 24.0267 160.71 24.16C160.604 24.2667 160.484 24.36 160.35 24.44C160.244 24.4933 160.137 24.56 160.03 24.64ZM159.99 24.12C160.15 24.0133 160.27 23.92 160.35 23.84C160.43 23.76 160.497 23.6533 160.55 23.52C160.604 23.3867 160.644 23.2667 160.67 23.16C160.83 22.7333 160.91 22.2933 160.91 21.84C160.91 21.3867 160.91 20.9333 160.91 20.48C160.91 20.4267 160.91 20.3867 160.91 20.36C160.91 20.28 160.91 20.16 160.91 20C160.91 19.7333 160.897 19.4533 160.87 19.16C160.844 18.84 160.777 18.56 160.67 18.32C160.457 17.92 160.124 17.64 159.67 17.48C159.217 17.2933 158.777 17.2933 158.35 17.48C157.977 17.64 157.737 17.9067 157.63 18.28C157.55 18.6533 157.497 19.0267 157.47 19.4C157.47 19.6667 157.47 19.9333 157.47 20.2C157.497 20.4667 157.524 20.7333 157.55 21C157.577 21.2933 157.604 21.5867 157.63 21.88C157.684 22.1467 157.75 22.4133 157.83 22.68C157.91 22.92 158.004 23.1333 158.11 23.32C158.244 23.5067 158.444 23.64 158.71 23.72C158.79 23.7467 158.87 23.76 158.95 23.76C159.057 23.76 159.15 23.7467 159.23 23.72C159.364 23.72 159.457 23.72 159.51 23.72C159.537 23.72 159.577 23.7333 159.63 23.76C159.71 23.7867 159.75 23.8133 159.75 23.84L159.99 24.12Z" fill="white"/>
</svg>
